<svg xmlns="http://www.w3.org/2000/svg" width="1023" height="1024" viewBox="0 0 1023 1024">
<g>
<path d="M 517.50 524.94 C524.65,525.34 488.38,525.74 436.90,525.83 C343.55,526.00 343.31,525.99 341.44,523.94 C339.02,521.26 339.10,520.18 343.88,486.50 C346.07,471.10 348.19,455.80 348.59,452.50 C348.99,449.20 349.49,447.02 349.71,447.65 C349.92,448.28 349.38,454.13 348.50,460.65 C345.21,485.19 343.81,500.21 344.74,501.14 C346.06,502.46 350.70,495.36 351.54,490.75 C352.04,488.02 352.72,487.00 354.07,487.00 C355.09,487.00 358.93,484.08 362.61,480.50 C366.29,476.92 369.74,474.00 370.26,474.00 C370.78,474.00 373.06,472.54 375.31,470.75 C377.57,468.96 381.09,466.75 383.14,465.83 C385.21,464.90 387.55,462.84 388.39,461.21 C389.23,459.58 390.75,458.04 391.77,457.77 C392.78,457.51 394.28,455.99 395.11,454.39 C399.49,445.91 400.40,444.92 403.54,445.17 C408.19,445.54 412.72,443.24 413.88,439.91 C414.44,438.31 415.46,437.00 416.14,437.00 C417.66,437.00 425.34,431.90 425.92,430.50 C427.20,427.41 444.95,413.02 447.49,413.00 C448.03,413.00 446.22,414.52 443.47,416.37 C432.62,423.68 426.31,434.11 423.57,449.28 C421.35,461.60 419.04,472.11 417.78,475.68 C415.58,481.86 421.36,483.92 430.23,480.12 C436.19,477.56 439.33,473.52 445.75,460.12 C452.61,445.79 457.20,440.96 466.82,437.93 C470.50,436.78 476.20,435.66 479.50,435.45 C485.17,435.08 485.26,435.11 481.23,435.98 C478.88,436.49 476.31,437.55 475.53,438.33 C474.29,439.56 474.75,439.84 478.95,440.40 C485.96,441.33 486.82,442.98 485.76,453.50 C485.31,458.01 486.77,462.30 488.52,461.63 C491.00,460.68 495.00,466.01 495.00,470.25 C495.00,471.80 495.65,474.62 496.45,476.53 C497.25,478.44 497.47,480.00 496.95,480.00 C494.95,480.00 496.14,482.75 499.59,486.05 C501.56,487.95 503.77,490.64 504.50,492.04 C505.24,493.44 507.67,496.81 509.92,499.52 C512.16,502.24 514.01,504.92 514.02,505.48 C514.03,506.04 516.01,507.82 518.41,509.43 C521.25,511.33 523.12,513.50 523.77,515.61 L 524.77 518.86 L 520.13 519.87 C517.59,520.43 512.91,521.17 509.75,521.52 C506.59,521.86 504.00,522.56 504.00,523.07 C504.00,523.16 503.99,523.25 503.99,523.32 C503.98,523.47 503.97,523.59 504.00,523.69 C504.22,524.27 505.94,524.31 517.50,524.94 Z" fill="rgb(16,152,184)"/>
<path d="M 453.34 411.33 C448.42,413.29 444.14,415.68 440.46,418.57 C441.42,417.80 442.43,417.07 443.47,416.37 C446.22,414.52 448.03,413.00 447.49,413.00 C444.95,413.02 427.20,427.41 425.92,430.50 C425.34,431.90 417.66,437.00 416.14,437.00 C415.46,437.00 414.44,438.31 413.88,439.91 C412.72,443.24 408.19,445.54 403.54,445.17 C400.40,444.92 399.49,445.91 395.11,454.39 C394.28,455.99 392.78,457.51 391.77,457.77 C390.75,458.04 389.23,459.58 388.39,461.21 C387.55,462.84 385.21,464.90 383.14,465.83 C381.09,466.75 377.57,468.96 375.31,470.75 C373.06,472.54 370.78,474.00 370.26,474.00 C369.74,474.00 366.29,476.92 362.61,480.50 C358.93,484.08 355.09,487.00 354.07,487.00 C352.72,487.00 352.04,488.02 351.54,490.75 C350.70,495.36 346.06,502.46 344.74,501.14 C343.81,500.21 345.21,485.19 348.50,460.65 C349.38,454.13 349.92,448.28 349.71,447.65 C349.68,447.57 349.65,447.54 349.62,447.54 C350.46,442.16 351.91,432.28 353.28,422.50 C356.02,402.96 356.59,400.25 357.11,404.50 C357.44,407.25 357.47,409.95 357.17,410.50 C356.42,411.86 360.07,409.07 362.34,406.54 C363.35,405.42 363.88,405.06 363.53,405.75 C363.17,406.44 363.29,407.00 363.78,407.00 C364.27,407.00 365.26,405.76 365.96,404.25 C367.16,401.67 367.29,401.62 368.05,403.50 C368.74,405.21 368.87,405.25 368.93,403.74 C368.99,402.23 369.29,402.16 371.05,403.24 C372.87,404.35 373.42,404.14 375.80,401.36 C377.44,399.46 379.85,397.98 381.92,397.60 C383.81,397.26 388.01,396.01 391.27,394.82 C396.44,392.94 397.53,392.06 399.84,387.90 C401.30,385.28 403.40,382.92 404.50,382.65 C408.16,381.76 413.75,379.45 415.23,378.23 C416.03,377.56 416.97,377.30 417.31,377.64 C418.58,378.91 437.45,375.74 439.88,373.85 C441.53,372.58 443.94,372.00 447.63,372.00 C450.59,372.00 453.00,371.64 453.00,371.21 C453.00,370.78 451.80,370.44 450.34,370.46 C448.29,370.49 447.50,369.89 446.95,367.87 C446.04,364.51 447.34,362.00 448.72,364.47 C449.25,365.41 449.98,366.14 450.34,366.09 C452.76,365.76 453.37,366.12 452.00,367.06 C450.60,368.02 455.04,367.93 466.50,366.75 C468.33,366.56 470.67,367.26 472.50,368.53 C477.20,371.78 490.43,378.00 492.67,378.00 C494.89,378.00 499.32,381.35 498.36,382.30 C497.29,383.38 511.18,386.03 514.01,385.29 C516.79,384.56 522.99,386.87 522.39,388.42 C521.78,390.01 514.75,392.34 510.00,392.52 C508.08,392.60 505.60,393.00 504.50,393.41 C503.40,393.83 500.92,394.79 499.00,395.55 C497.08,396.31 493.25,397.56 490.50,398.34 C487.00,399.33 485.54,400.24 485.64,401.38 C485.72,402.27 485.49,403.01 485.14,403.01 C482.37,403.06 458.24,409.37 453.34,411.33 ZM 517.50 524.94 C505.94,524.31 504.22,524.27 504.00,523.69 C503.97,523.59 503.98,523.47 503.99,523.32 C503.99,523.25 504.00,523.16 504.00,523.07 C504.00,522.56 506.59,521.86 509.75,521.52 C512.91,521.17 517.59,520.43 520.13,519.87 L 524.77 518.86 L 523.77 515.61 C523.12,513.50 521.25,511.33 518.41,509.43 C516.01,507.82 514.03,506.04 514.02,505.48 C514.01,504.92 512.16,502.24 509.92,499.52 C507.67,496.81 505.24,493.44 504.50,492.04 C503.77,490.64 501.56,487.95 499.59,486.05 C496.14,482.75 494.95,480.00 496.95,480.00 C497.47,480.00 497.25,478.44 496.45,476.53 C495.65,474.62 495.00,471.80 495.00,470.25 C495.00,466.01 491.00,460.68 488.52,461.63 C486.77,462.30 485.31,458.01 485.76,453.50 C486.82,442.98 485.96,441.33 478.95,440.40 C474.75,439.84 474.29,439.56 475.53,438.33 C476.31,437.55 478.88,436.49 481.23,435.98 C482.09,435.79 482.76,435.65 483.23,435.53 C486.75,435.42 491.19,435.35 497.00,435.27 C511.14,435.08 519.96,435.31 519.14,435.85 C516.85,437.37 519.70,438.34 528.99,439.20 C533.67,439.64 540.42,440.27 544.00,440.61 C548.35,441.03 551.07,441.83 552.22,443.04 C553.18,444.05 553.49,445.00 552.91,445.20 C550.86,445.88 553.07,448.79 555.22,448.23 C556.65,447.86 557.08,448.05 556.60,448.84 C556.17,449.53 556.51,450.00 557.44,450.00 C558.30,450.00 559.01,450.56 559.02,451.25 C559.03,451.94 560.15,453.56 561.52,454.85 C562.88,456.15 564.00,458.30 564.00,459.63 C564.00,461.37 565.29,462.93 568.67,465.27 C571.24,467.05 574.05,469.35 574.92,470.39 C575.79,471.43 579.32,475.14 582.77,478.64 C587.46,483.40 589.73,485.00 591.80,485.00 C593.31,485.00 595.56,485.70 596.78,486.56 C601.16,489.63 598.96,496.56 591.49,503.20 C586.16,507.94 567.44,518.30 562.09,519.48 C560.32,519.87 557.66,520.85 556.18,521.66 C553.62,523.06 553.76,523.10 559.00,522.52 C567.45,521.59 562.91,523.63 553.67,524.91 C548.46,525.64 512.06,526.00 444.58,526.00 C393.31,526.00 367.99,526.00 355.25,525.73 C367.33,525.96 390.72,525.91 436.90,525.83 C488.38,525.74 524.65,525.34 517.50,524.94 ZM 430.50 374.00 C430.16,374.55 428.76,375.00 427.38,375.00 C425.97,375.00 425.15,374.56 425.50,374.00 C425.84,373.45 427.24,373.00 428.62,373.00 C430.03,373.00 430.85,373.44 430.50,374.00 ZM 355.69 422.64 C356.23,424.05 356.40,424.04 357.24,422.53 C358.30,420.64 357.67,419.47 356.11,420.43 C355.55,420.78 355.36,421.77 355.69,422.64 ZM 475.19 435.99 C472.34,436.47 469.17,437.20 466.82,437.93 C463.55,438.96 460.86,440.20 458.46,441.95 C460.86,440.18 463.55,438.90 466.82,437.81 C469.56,436.90 471.68,436.35 475.19,435.99 ZM 346.96 464.59 C346.09,470.82 345.00,478.65 343.88,486.50 C343.61,488.41 343.35,490.21 343.11,491.91 C344.38,482.61 345.80,472.54 346.96,464.59 ZM 340.20 513.98 C339.84,517.57 339.79,519.65 340.00,521.03 C339.79,520.25 339.68,519.44 339.70,518.70 C339.72,518.17 339.90,516.49 340.20,513.98 Z" fill="rgb(20,181,190)"/>
<path d="M 453.34 411.33 C458.24,409.37 482.37,403.06 485.14,403.01 C485.43,403.01 485.63,402.51 485.65,401.84 C486.29,402.77 489.52,402.29 505.50,399.67 C544.97,393.19 560.20,390.86 560.59,391.26 C560.83,391.49 556.63,392.46 551.26,393.41 C545.89,394.36 539.47,395.54 537.00,396.04 C534.53,396.53 527.10,397.67 520.50,398.57 C513.90,399.47 506.25,400.97 503.50,401.90 C500.75,402.83 495.35,403.72 491.50,403.87 C487.65,404.02 480.77,405.01 476.21,406.07 C471.65,407.13 467.28,408.00 466.49,408.00 C465.70,408.00 462.23,409.28 458.78,410.85 C455.32,412.42 451.34,413.98 449.92,414.33 C446.37,415.19 439.74,420.61 434.67,426.80 C429.51,433.08 426.32,442.50 422.59,462.50 C421.15,470.20 419.98,477.07 419.99,477.77 C419.99,478.47 421.06,479.53 422.36,480.12 C424.20,480.96 425.47,480.82 428.11,479.48 C435.71,475.63 437.65,473.30 443.85,460.57 C451.98,443.86 456.87,439.15 470.50,434.87 C473.52,433.93 493.01,433.53 549.69,433.25 L 624.88 432.89 L 626.50 435.36 C627.77,437.29 627.98,439.20 627.47,444.16 C626.34,455.25 623.86,467.30 621.33,474.00 C619.98,477.58 618.40,482.08 617.82,484.00 C615.70,491.05 601.34,506.56 591.24,512.72 C583.58,517.39 571.01,522.71 563.25,524.57 C558.91,525.61 548.45,526.49 534.00,527.04 C504.35,528.17 346.12,528.12 343.31,526.99 C342.10,526.50 340.36,524.96 339.44,523.56 C339.13,523.07 338.87,522.69 338.67,522.28 C337.77,520.42 338.13,517.95 340.33,502.76 L 340.52 501.50 C344.43,474.58 345.20,468.85 346.05,460.60 C346.55,455.70 347.18,450.97 347.45,450.10 C347.71,449.22 348.87,441.75 350.01,433.50 C351.15,425.25 352.96,412.55 354.04,405.28 C355.12,398.02 356.00,391.60 356.00,391.03 C356.00,390.47 356.37,390.00 356.82,390.00 C357.27,390.00 357.52,394.76 357.37,400.58 C357.31,402.97 357.27,404.87 357.29,406.32 C357.24,405.73 357.18,405.12 357.11,404.50 C356.59,400.25 356.02,402.96 353.28,422.50 C351.91,432.28 350.46,442.16 349.62,447.54 C349.37,447.55 348.94,449.59 348.59,452.50 C348.39,454.12 347.78,458.61 346.96,464.59 C345.80,472.54 344.38,482.61 343.11,491.91 C341.59,502.66 340.66,509.50 340.20,513.98 C339.90,516.49 339.72,518.17 339.70,518.70 C339.68,519.44 339.79,520.25 340.00,521.03 C340.21,522.47 340.72,523.13 341.44,523.94 C342.38,524.98 342.91,525.49 355.25,525.73 L 355.26 525.73 C368.00,526.00 393.32,526.00 444.58,526.00 C512.06,526.00 548.46,525.64 553.67,524.91 C562.15,523.73 566.67,521.92 560.82,522.35 C561.63,522.25 562.52,522.12 563.50,521.99 C567.35,521.45 572.75,520.04 575.50,518.85 C586.10,514.25 588.68,512.95 590.56,511.25 C591.63,510.29 594.30,508.21 596.50,506.63 C603.61,501.53 612.97,490.80 616.22,484.02 C620.82,474.40 622.83,467.03 625.00,451.76 C626.93,438.16 626.86,435.06 624.64,434.93 C616.22,434.44 520.21,435.34 519.17,435.93 C518.86,436.10 518.64,436.26 518.51,436.42 C518.63,436.24 518.84,436.05 519.14,435.85 C519.96,435.31 511.14,435.08 497.00,435.27 C491.19,435.35 486.75,435.42 483.23,435.53 C484.97,435.11 483.96,435.16 479.50,435.45 C478.31,435.52 476.80,435.72 475.19,435.99 C471.68,436.35 469.56,436.90 466.82,437.81 C463.55,438.90 460.86,440.18 458.46,441.95 C453.81,445.35 450.27,450.66 445.75,460.12 C439.33,473.52 436.19,477.56 430.23,480.12 C421.36,483.92 415.58,481.86 417.78,475.68 C419.04,472.11 421.35,461.60 423.57,449.28 C426.05,435.58 431.44,425.73 440.46,418.57 C444.14,415.68 448.42,413.29 453.34,411.33 ZM 457.50 350.97 C448.75,353.43 446.73,353.47 444.65,351.17 C440.65,346.75 443.88,340.87 454.13,333.91 C458.80,330.74 462.16,329.45 470.74,327.52 C476.66,326.19 483.98,324.40 487.00,323.55 C493.21,321.81 527.86,313.20 541.46,310.03 C546.39,308.88 550.77,307.39 551.19,306.72 C551.80,305.76 551.97,305.76 551.98,306.73 C552.01,308.96 547.62,310.70 537.61,312.42 C532.17,313.35 525.87,314.74 523.61,315.49 C521.35,316.24 517.70,317.16 515.50,317.52 C513.30,317.88 506.77,319.45 501.00,321.01 C495.23,322.57 485.10,325.28 478.50,327.02 C471.90,328.77 465.14,330.80 463.48,331.54 C461.83,332.27 459.34,333.30 457.97,333.82 C456.59,334.35 453.09,336.66 450.18,338.96 C445.58,342.59 444.92,343.54 445.19,346.22 C445.66,350.89 447.80,351.67 454.66,349.67 C466.83,346.11 495.06,339.00 496.74,339.07 C498.36,339.14 488.72,342.18 471.50,347.03 C467.65,348.11 461.35,349.89 457.50,350.97 ZM 568.50 336.18 C558.05,343.46 557.00,343.31 557.00,334.54 C557.00,330.72 556.51,327.84 555.75,327.22 C554.56,326.25 545.22,327.49 539.25,329.41 C538.01,329.81 537.00,329.73 537.00,329.23 C537.00,328.02 543.16,326.23 550.15,325.41 C555.20,324.82 555.91,324.97 556.90,326.81 C557.50,327.94 558.00,330.87 558.00,333.33 C558.00,337.85 559.73,339.85 562.34,338.33 C566.26,336.06 581.14,325.04 584.50,321.92 C586.70,319.89 589.85,317.53 591.50,316.70 C595.78,314.53 600.25,309.52 599.83,307.36 C599.56,305.93 596.56,304.69 586.49,301.82 C579.34,299.78 572.32,298.09 570.88,298.06 C569.43,298.03 566.40,297.35 564.15,296.55 C561.89,295.76 557.33,294.80 554.02,294.42 C547.30,293.66 546.60,294.41 550.00,298.73 C551.10,300.13 552.00,302.20 552.00,303.33 C552.00,304.69 550.81,303.41 548.50,299.57 C546.58,296.37 545.00,293.59 545.00,293.38 C545.00,292.22 556.05,293.34 566.50,295.55 C588.11,300.12 605.63,305.79 604.81,307.95 C604.27,309.39 580.98,327.50 568.50,336.18 ZM 357.38 408.31 C357.51,409.67 357.79,410.26 358.33,410.20 C357.39,410.88 356.83,411.12 357.17,410.50 C357.32,410.22 357.39,409.40 357.38,408.31 ZM 519.40 437.66 C520.92,438.24 524.09,438.75 528.99,439.20 C524.01,438.74 520.88,438.25 519.40,437.66 ZM 486.60 399.89 C487.00,399.62 487.53,399.35 488.20,399.09 C487.57,399.35 487.03,399.62 486.60,399.89 ZM 554.86 522.87 C554.59,522.84 554.50,522.78 554.59,522.66 C554.56,522.76 554.65,522.83 554.86,522.87 Z" fill="rgb(27,77,90)"/>
<path d="M 568.50 386.00 C561.16,388.53 559.69,388.53 563.50,386.00 C565.15,384.91 567.20,384.01 568.06,384.01 C568.92,384.00 572.00,382.86 574.89,381.46 C577.79,380.06 581.48,378.65 583.10,378.33 C584.72,378.01 586.36,377.24 586.74,376.62 C587.99,374.61 587.74,371.00 586.35,371.00 C585.61,371.00 585.00,370.62 585.00,370.15 C585.00,369.29 575.80,370.39 574.07,371.45 C573.05,372.09 563.98,366.38 562.70,364.30 C562.26,363.59 560.44,363.00 558.65,363.00 C552.78,363.00 551.10,358.64 555.50,354.81 C558.46,352.24 558.58,351.32 556.25,348.66 C554.98,347.21 554.91,346.88 556.00,347.47 C557.22,348.14 557.27,348.04 556.25,346.95 C553.86,344.37 554.74,342.70 558.11,343.37 C562.20,344.19 568.46,341.34 572.95,336.63 C574.84,334.63 576.98,333.00 577.70,333.00 C578.42,333.00 580.02,331.83 581.26,330.40 C582.49,328.97 585.17,326.95 587.22,325.90 C589.26,324.85 591.38,323.16 591.93,322.13 C592.48,321.11 594.18,319.74 595.71,319.08 C597.25,318.42 600.03,315.82 601.89,313.30 C605.59,308.29 604.86,308.42 598.00,314.00 C590.46,320.13 582.61,326.09 575.90,330.87 C588.46,321.65 604.36,309.14 604.81,307.95 C605.47,306.20 594.15,302.16 578.37,298.26 C586.98,300.31 595.11,302.60 599.71,304.52 C601.54,305.29 603.00,305.47 603.00,304.93 C603.00,303.32 596.69,300.01 593.61,300.00 C592.02,300.00 587.07,298.45 582.61,296.56 C574.82,293.25 562.83,290.37 561.16,291.40 C560.72,291.67 559.11,291.25 557.59,290.46 C556.00,289.64 552.66,289.13 549.73,289.26 C545.11,289.48 544.57,289.75 543.91,292.23 C543.38,294.24 543.71,295.63 545.16,297.47 C546.32,298.95 547.00,301.10 546.82,302.69 C546.54,305.09 545.61,305.70 538.50,308.19 C534.10,309.73 528.82,311.00 526.76,311.00 C524.70,311.00 519.75,312.07 515.76,313.38 C503.03,317.57 496.40,319.23 494.42,318.72 C493.03,318.37 493.26,318.20 495.25,318.12 C496.76,318.05 498.00,317.62 498.00,317.16 C498.00,316.70 499.69,315.81 501.76,315.19 C506.80,313.68 515.02,307.60 511.36,308.09 C511.01,308.13 510.45,307.73 510.11,307.19 C509.78,306.66 507.25,306.05 504.50,305.86 C501.75,305.66 499.26,305.18 498.97,304.80 C498.68,304.41 496.74,303.91 494.65,303.68 C492.57,303.45 490.35,302.75 489.73,302.13 C489.11,301.51 487.14,301.00 485.36,301.00 C483.58,301.00 481.88,300.62 481.60,300.16 C481.31,299.70 478.02,298.55 474.29,297.61 C470.56,296.67 465.77,295.44 463.65,294.88 C460.60,294.07 459.11,294.20 456.37,295.50 C453.13,297.03 452.42,297.01 444.56,295.07 C438.75,293.64 434.71,293.21 431.35,293.64 C425.37,294.42 424.00,295.44 424.00,299.10 C424.00,302.19 423.75,302.31 414.61,303.74 C411.86,304.17 409.40,305.17 409.01,306.01 C406.86,310.63 406.06,311.49 403.29,312.20 C401.24,312.74 399.84,313.97 399.00,316.00 C398.15,318.06 397.06,319.00 395.53,319.00 C393.04,319.00 390.00,321.86 390.00,324.21 C390.00,325.91 387.63,328.30 386.78,327.44 C386.48,327.15 385.96,328.04 385.61,329.42 C385.13,331.31 383.97,332.20 380.86,333.04 C378.09,333.78 376.42,333.82 375.74,333.14 C375.06,332.46 374.35,332.52 373.57,333.31 C371.96,334.96 368.36,347.80 366.59,358.25 C365.77,363.06 364.64,367.79 364.08,368.75 C362.55,371.38 362.70,368.70 364.52,361.00 C366.24,353.73 370.38,333.45 372.49,321.97 C374.61,310.47 378.78,300.07 382.92,295.93 C384.89,293.97 387.31,291.16 388.30,289.68 C389.43,287.99 391.00,287.00 392.55,287.00 C394.44,287.00 395.00,286.47 395.00,284.71 C395.00,280.78 408.52,269.68 416.00,267.48 C417.38,267.07 419.70,265.89 421.17,264.86 C422.63,263.83 425.33,262.71 427.17,262.37 C429.00,262.03 431.45,261.17 432.61,260.45 C435.40,258.71 447.45,256.35 458.00,255.48 C467.64,254.68 468.19,254.67 537.28,254.91 C565.20,255.01 588.39,254.88 588.81,254.62 C591.05,253.23 644.17,252.20 647.26,253.49 C649.84,254.56 650.34,258.10 648.71,263.62 C647.91,266.31 647.48,269.96 647.75,271.75 C648.03,273.68 647.53,276.46 646.52,278.61 C645.45,280.85 644.99,283.58 645.29,285.86 C645.55,287.86 644.69,294.90 643.38,301.50 C642.07,308.10 640.99,315.07 640.98,317.00 C640.96,318.92 639.84,323.20 638.48,326.50 C637.12,329.80 636.01,333.41 636.00,334.52 C636.00,335.63 634.88,338.19 633.50,340.21 C632.12,342.24 631.00,344.14 631.00,344.44 C631.00,347.16 614.49,364.73 608.05,368.85 C606.65,369.74 603.65,371.87 601.40,373.57 C599.14,375.27 595.09,377.26 592.40,377.99 C589.70,378.72 585.38,380.37 582.78,381.66 C580.19,382.95 577.22,384.00 576.19,384.00 C575.16,384.00 571.70,384.90 568.50,386.00 ZM 515.43 341.03 C514.02,341.56 510.99,341.96 508.68,341.92 L 504.50 341.84 L 507.50 340.46 C509.15,339.71 512.08,339.07 514.00,339.04 C515.92,339.01 518.92,338.13 520.65,337.07 C522.38,336.02 525.30,334.92 527.15,334.62 C528.99,334.33 534.07,332.92 538.43,331.49 C546.39,328.89 553.02,328.52 553.72,330.63 C553.95,331.34 551.91,332.01 548.29,332.42 C542.66,333.06 537.28,334.76 531.83,337.62 C530.36,338.39 526.65,339.25 523.58,339.54 C520.51,339.82 516.84,340.49 515.43,341.03 ZM 622.39 454.68 C622.07,455.88 621.24,457.08 620.56,457.34 C619.65,457.69 619.25,456.04 619.10,451.33 C618.78,441.41 618.08,440.28 611.77,439.49 C608.84,439.12 598.49,438.74 588.78,438.64 C579.07,438.54 570.77,438.11 570.35,437.69 C569.50,436.83 599.77,437.00 612.79,437.92 C618.57,438.32 621.36,438.95 622.02,440.00 C623.07,441.66 623.31,451.25 622.39,454.68 ZM 555.50 388.41 C552.75,389.09 549.49,389.99 548.25,390.39 C547.01,390.80 546.00,390.74 546.00,390.27 C546.00,388.89 552.29,386.99 556.57,387.09 L 560.50 387.17 ZM 612.49 485.61 C609.20,490.45 609.00,490.64 609.00,488.90 C609.00,486.90 614.28,479.33 614.73,480.68 C614.93,481.28 613.92,483.50 612.49,485.61 ZM 537.00 392.00 C533.36,393.17 529.78,393.17 530.50,392.00 C530.84,391.45 533.00,391.04 535.31,391.10 C538.89,391.18 539.14,391.32 537.00,392.00 ZM 545.00 293.38 C545.00,292.63 547.98,292.69 552.60,293.28 C548.12,292.79 545.00,292.77 545.00,293.38 ZM 557.46 339.99 C557.73,340.80 558.14,341.25 558.77,341.37 C558.64,341.38 558.53,341.37 558.45,341.34 C558.01,341.17 557.69,340.75 557.46,339.99 Z" fill="rgb(36,217,191)"/>
<path d="M 457.50 350.97 C461.35,349.89 467.65,348.11 471.50,347.03 C471.83,346.93 472.16,346.84 472.49,346.75 C470.00,347.50 468.02,348.12 467.00,348.45 L 462.50 349.94 L 466.50 349.55 C468.70,349.34 472.30,348.71 474.50,348.15 C483.85,345.80 492.86,343.83 498.00,343.03 C501.02,342.56 505.17,341.46 507.22,340.58 C507.29,340.56 507.36,340.53 507.43,340.50 L 504.50 341.84 L 508.68 341.92 C510.99,341.96 514.02,341.56 515.43,341.03 C516.84,340.49 520.51,339.82 523.58,339.54 C526.65,339.25 530.36,338.39 531.83,337.62 C537.28,334.76 542.66,333.06 548.29,332.42 C551.81,332.02 553.83,331.37 553.73,330.69 C553.93,331.05 554.11,331.48 554.31,332.00 C554.93,333.65 555.79,335.00 556.22,335.00 C556.66,335.00 556.90,334.21 556.98,333.12 C556.99,333.58 557.00,334.05 557.00,334.54 C557.00,337.06 557.09,338.87 557.46,339.99 C557.69,340.75 558.01,341.17 558.45,341.34 C558.53,341.37 558.64,341.38 558.77,341.37 C559.16,341.44 559.63,341.38 560.19,341.19 C559.19,341.72 558.47,342.01 558.12,342.02 C556.71,342.03 556.69,342.16 558.00,343.00 C558.27,343.18 558.57,343.34 558.88,343.48 C558.62,343.46 558.36,343.42 558.11,343.37 C554.74,342.70 553.86,344.37 556.25,346.95 C557.27,348.04 557.22,348.14 556.00,347.47 C554.91,346.88 554.98,347.21 556.25,348.66 C558.58,351.32 558.46,352.24 555.50,354.81 C551.10,358.64 552.78,363.00 558.65,363.00 C560.44,363.00 562.26,363.59 562.70,364.30 C563.98,366.38 573.05,372.09 574.07,371.45 C575.80,370.39 585.00,369.29 585.00,370.15 C585.00,370.62 585.61,371.00 586.35,371.00 C587.74,371.00 587.99,374.61 586.74,376.62 C586.36,377.24 584.72,378.01 583.10,378.33 C581.48,378.65 577.79,380.06 574.89,381.46 C572.00,382.86 568.92,384.00 568.06,384.01 C567.20,384.01 565.15,384.91 563.50,386.00 C562.02,386.98 561.34,387.58 561.48,387.80 C560.68,387.93 560.00,388.00 559.50,388.00 C558.08,388.00 555.40,388.45 552.99,389.05 C553.83,388.83 554.69,388.61 555.50,388.41 L 560.50 387.17 L 556.57 387.09 C552.29,386.99 546.00,388.89 546.00,390.27 C546.00,390.54 546.32,390.67 546.82,390.67 C545.05,391.06 543.29,391.38 542.00,391.54 C533.62,392.58 527.00,394.14 527.00,395.07 C527.00,395.67 527.14,395.97 528.90,395.86 C522.29,396.92 514.53,398.19 505.50,399.67 C489.52,402.29 486.29,402.77 485.65,401.84 C485.66,401.70 485.65,401.54 485.64,401.38 C485.59,400.84 485.90,400.35 486.60,399.89 C487.03,399.62 487.57,399.35 488.20,399.09 L 488.20 399.09 C488.84,398.84 489.60,398.60 490.50,398.34 C493.25,397.56 497.08,396.31 499.00,395.55 C500.92,394.79 503.40,393.83 504.50,393.41 C505.60,393.00 508.08,392.60 510.00,392.52 C514.75,392.34 521.78,390.01 522.39,388.42 C522.99,386.87 516.79,384.56 514.01,385.29 C511.18,386.03 497.29,383.38 498.36,382.30 C499.32,381.35 494.89,378.00 492.67,378.00 C490.43,378.00 477.20,371.78 472.50,368.53 C470.67,367.26 468.33,366.56 466.50,366.75 C455.04,367.93 450.60,368.02 452.00,367.06 C453.37,366.12 452.76,365.76 450.34,366.09 C449.98,366.14 449.25,365.41 448.72,364.47 C447.34,362.00 446.04,364.51 446.95,367.87 C447.50,369.89 448.29,370.49 450.34,370.46 C451.80,370.44 453.00,370.78 453.00,371.21 C453.00,371.64 450.59,372.00 447.63,372.00 C443.94,372.00 441.53,372.58 439.88,373.85 C437.45,375.74 418.58,378.91 417.31,377.64 C416.97,377.30 416.03,377.56 415.23,378.23 C413.75,379.45 408.16,381.76 404.50,382.65 C403.40,382.92 401.30,385.28 399.84,387.90 C397.53,392.06 396.44,392.94 391.27,394.82 C388.01,396.01 383.81,397.26 381.92,397.60 C379.85,397.98 377.44,399.46 375.80,401.36 C373.42,404.14 372.87,404.35 371.05,403.24 C369.29,402.16 368.99,402.23 368.93,403.74 C368.87,405.25 368.74,405.21 368.05,403.50 C367.29,401.62 367.16,401.67 365.96,404.25 C365.26,405.76 364.27,407.00 363.78,407.00 C363.29,407.00 363.17,406.44 363.53,405.75 C363.88,405.06 363.35,405.42 362.34,406.54 C361.10,407.92 359.45,409.38 358.33,410.20 C357.79,410.26 357.51,409.67 357.38,408.31 C357.37,407.71 357.34,407.04 357.29,406.32 C357.27,404.87 357.31,402.97 357.37,400.58 C357.50,395.44 357.32,391.12 356.97,390.19 C357.06,390.20 357.15,390.22 357.25,390.25 C358.81,390.78 362.95,377.22 362.97,371.50 C362.97,370.98 363.01,370.31 363.08,369.55 C363.20,369.95 363.53,369.69 364.08,368.75 C364.64,367.79 365.77,363.06 366.59,358.25 C368.36,347.80 371.96,334.96 373.57,333.31 C374.35,332.52 375.06,332.46 375.74,333.14 C376.42,333.82 378.09,333.78 380.86,333.04 C383.97,332.20 385.13,331.31 385.61,329.42 C385.96,328.04 386.48,327.15 386.78,327.44 C387.63,328.30 390.00,325.91 390.00,324.21 C390.00,321.86 393.04,319.00 395.53,319.00 C397.06,319.00 398.15,318.06 399.00,316.00 C399.84,313.97 401.24,312.74 403.29,312.20 C406.06,311.49 406.86,310.63 409.01,306.01 C409.40,305.17 411.86,304.17 414.61,303.74 C423.75,302.31 424.00,302.19 424.00,299.10 C424.00,295.44 425.37,294.42 431.35,293.64 C434.71,293.21 438.75,293.64 444.56,295.07 C452.42,297.01 453.13,297.03 456.37,295.50 C459.11,294.20 460.60,294.07 463.65,294.88 C465.77,295.44 470.56,296.67 474.29,297.61 C478.02,298.55 481.31,299.70 481.60,300.16 C481.88,300.62 483.58,301.00 485.36,301.00 C487.14,301.00 489.11,301.51 489.73,302.13 C490.35,302.75 492.57,303.45 494.65,303.68 C496.74,303.91 498.68,304.41 498.97,304.80 C499.26,305.18 501.75,305.66 504.50,305.86 C507.25,306.05 509.78,306.66 510.11,307.19 C510.45,307.73 511.01,308.13 511.36,308.09 C515.02,307.60 506.80,313.68 501.76,315.19 C499.69,315.81 498.00,316.70 498.00,317.16 C498.00,317.62 496.76,318.05 495.25,318.12 C493.26,318.20 493.03,318.37 494.42,318.72 C495.80,319.07 499.44,318.37 505.84,316.50 C499.93,318.26 496.54,319.00 494.61,319.00 C493.12,319.00 490.51,319.72 488.82,320.59 C487.12,321.47 483.02,322.57 479.71,323.04 C476.33,323.52 472.98,324.63 472.09,325.57 C470.63,327.11 470.79,327.20 474.58,326.64 C473.27,326.94 471.98,327.24 470.74,327.52 C462.16,329.45 458.80,330.74 454.13,333.91 C446.74,338.93 443.00,343.38 442.99,347.13 C442.69,344.89 441.00,346.09 441.00,348.94 C441.00,350.86 441.78,352.43 443.24,353.46 C446.78,355.94 457.32,354.73 459.96,351.54 C460.89,350.43 460.50,350.32 457.79,350.94 C455.98,351.35 452.84,352.29 450.81,353.02 C447.32,354.29 447.00,354.23 445.09,351.93 C444.67,351.43 444.28,350.85 443.95,350.27 C444.15,350.58 444.39,350.88 444.65,351.17 C446.73,353.47 448.75,353.43 457.50,350.97 ZM 519.40 437.66 C518.49,437.29 518.20,436.88 518.51,436.42 C518.64,436.26 518.86,436.10 519.17,435.93 C519.88,435.53 564.98,434.98 596.14,434.83 C590.97,434.87 585.35,434.93 579.50,434.99 C541.68,435.43 537.75,435.61 551.50,436.25 C559.40,436.62 572.73,436.99 582.73,437.13 C575.40,437.14 569.98,437.32 570.35,437.69 C570.77,438.11 579.07,438.54 588.78,438.64 C598.49,438.74 608.84,439.12 611.77,439.49 C618.08,440.28 618.78,441.41 619.10,451.33 C619.25,456.04 619.65,457.69 620.56,457.34 C621.24,457.08 622.07,455.88 622.39,454.68 C623.23,451.52 623.10,443.14 622.26,440.54 C622.67,441.78 622.98,444.41 622.98,446.95 C623.00,453.65 624.54,452.67 625.83,445.47 C625.62,447.26 625.34,449.35 625.00,451.76 C624.21,457.28 623.45,461.76 622.58,465.70 C622.70,464.80 622.71,463.98 622.57,463.42 C622.26,462.18 622.46,460.94 623.03,460.66 C623.59,460.38 623.49,460.26 622.80,460.40 C621.29,460.70 620.21,464.26 620.18,469.00 L 620.16 472.50 L 621.65 469.09 C621.78,468.80 621.89,468.49 622.00,468.18 C621.53,470.07 621.02,471.85 620.46,473.57 C620.50,473.32 620.49,473.16 620.43,473.09 C619.51,472.17 616.07,476.40 615.46,479.20 C615.32,479.84 615.00,480.71 614.58,481.67 C614.73,481.21 614.79,480.87 614.73,480.68 C614.28,479.33 609.00,486.90 609.00,488.90 C609.00,490.64 609.20,490.45 612.49,485.61 C612.62,485.42 612.75,485.22 612.87,485.03 C612.61,485.49 612.33,485.93 612.06,486.35 C610.55,488.63 609.03,491.29 608.69,492.25 C608.01,494.15 608.70,494.41 610.03,493.31 C605.93,498.40 600.81,503.55 596.50,506.63 C594.30,508.21 591.63,510.29 590.56,511.25 C588.68,512.95 586.10,514.25 575.50,518.85 C572.75,520.04 567.35,521.45 563.50,521.99 C562.52,522.12 561.63,522.25 560.82,522.35 C560.30,522.39 559.69,522.45 559.00,522.52 C556.73,522.77 555.41,522.91 554.86,522.87 C554.65,522.83 554.56,522.76 554.59,522.66 C554.73,522.47 555.30,522.15 556.18,521.66 C557.66,520.85 560.32,519.87 562.09,519.48 C567.44,518.30 586.16,507.94 591.49,503.20 C598.96,496.56 601.16,489.63 596.78,486.56 C595.56,485.70 593.31,485.00 591.80,485.00 C589.73,485.00 587.46,483.40 582.77,478.64 C579.32,475.14 575.79,471.43 574.92,470.39 C574.05,469.35 571.24,467.05 568.67,465.27 C565.29,462.93 564.00,461.37 564.00,459.63 C564.00,458.30 562.88,456.15 561.52,454.85 C560.15,453.56 559.03,451.94 559.02,451.25 C559.01,450.56 558.30,450.00 557.44,450.00 C556.51,450.00 556.17,449.53 556.60,448.84 C557.08,448.05 556.65,447.86 555.22,448.23 C553.07,448.79 550.86,445.88 552.91,445.20 C553.49,445.00 553.18,444.05 552.22,443.04 C551.07,441.83 548.35,441.03 544.00,440.61 C540.42,440.27 533.67,439.64 528.99,439.20 C524.09,438.75 520.92,438.24 519.40,437.66 ZM 441.68 343.25 C440.69,346.05 442.27,345.28 445.29,341.50 C447.14,339.19 447.61,338.00 446.70,338.00 C445.13,338.00 442.61,340.63 441.68,343.25 ZM 537.00 392.00 C539.14,391.32 538.89,391.18 535.31,391.10 C533.00,391.04 530.84,391.45 530.50,392.00 C529.78,393.17 533.36,393.17 537.00,392.00 ZM 430.50 374.00 C430.85,373.44 430.03,373.00 428.62,373.00 C427.24,373.00 425.84,373.45 425.50,374.00 C425.15,374.56 425.97,375.00 427.38,375.00 C428.76,375.00 430.16,374.55 430.50,374.00 ZM 355.69 422.64 C355.36,421.77 355.55,420.78 356.11,420.43 C357.67,419.47 358.30,420.64 357.24,422.53 C356.40,424.04 356.23,424.05 355.69,422.64 ZM 480.87 325.13 C481.18,325.03 481.45,324.92 481.69,324.82 C483.24,324.18 485.40,323.55 486.50,323.42 C487.14,323.34 490.47,322.57 495.10,321.43 C491.31,322.40 488.42,323.16 487.00,323.55 C485.65,323.93 483.44,324.50 480.87,325.13 ZM 553.30 330.04 C551.80,328.80 546.95,329.07 540.98,330.72 C544.52,329.72 548.06,329.00 549.62,329.00 C551.60,329.00 552.58,329.19 553.30,330.04 ZM 540.33 395.40 C543.39,394.83 547.57,394.06 551.26,393.41 C554.30,392.87 556.97,392.33 558.67,391.91 C558.46,391.97 558.24,392.03 558.00,392.09 C554.87,392.87 548.60,394.04 540.33,395.40 ZM 496.87 339.09 C496.84,339.08 496.80,339.08 496.74,339.07 C495.15,339.01 469.83,345.35 456.79,349.05 C466.62,346.14 495.05,339.00 496.76,339.06 C496.83,339.06 496.86,339.07 496.87,339.09 ZM 537.22 311.03 C529.37,312.90 518.04,315.69 508.03,318.18 C517.69,315.72 530.40,312.61 537.22,311.03 ZM 550.89 306.98 C549.75,307.73 545.82,309.01 541.46,310.03 C540.97,310.14 540.45,310.27 539.90,310.39 C545.28,309.07 549.72,307.70 550.89,306.98 ZM 566.23 341.66 C568.72,340.22 571.33,338.33 572.95,336.62 C574.18,335.32 575.52,334.18 576.50,333.54 C575.52,334.18 574.18,335.33 572.95,336.63 C570.95,338.73 568.59,340.46 566.23,341.66 ZM 615.35 485.68 C616.09,484.24 616.85,482.67 617.55,481.14 C617.13,482.08 616.69,483.04 616.22,484.02 C615.96,484.55 615.67,485.10 615.35,485.68 ZM 511.90 339.24 C512.77,339.09 513.58,339.00 514.22,339.00 C514.76,339.00 515.39,338.92 516.06,338.78 C515.32,338.94 514.61,339.03 514.00,339.04 C513.38,339.05 512.66,339.12 511.90,339.24 ZM 549.17 390.11 C549.95,389.88 550.98,389.59 552.09,389.29 C551.86,389.36 551.63,389.43 551.41,389.49 C550.74,389.70 549.98,389.90 549.17,390.11 ZM 356.09 390.57 C356.03,390.71 356.00,390.87 356.00,391.03 C356.00,391.60 355.12,398.02 354.04,405.28 C355.12,398.02 356.00,391.57 356.00,390.95 C356.00,390.81 356.03,390.68 356.09,390.57 ZM 504.44 401.62 C505.82,401.23 507.81,400.77 510.11,400.31 C507.76,400.79 505.77,401.24 504.44,401.62 ZM 625.93 435.75 C625.75,435.46 625.52,435.24 625.26,435.07 C625.53,435.20 625.76,435.42 625.93,435.75 Z" fill="rgb(29,201,191)"/>
<path d="M 0.00 0.00 L 1023.00 0.00 L 1023.00 1024.00 L 0.00 1024.00 ZM 540.33 395.40 C548.60,394.04 554.87,392.87 558.00,392.09 C558.24,392.03 558.46,391.97 558.67,391.91 C559.96,391.60 560.69,391.36 560.59,391.26 C560.41,391.08 557.22,391.46 550.14,392.52 C552.56,392.14 554.93,391.78 556.96,391.48 C577.93,388.43 597.37,382.01 608.97,374.33 C622.00,365.70 632.96,352.45 638.20,339.00 C641.92,329.47 643.59,320.79 648.51,285.41 C652.51,256.61 652.79,253.33 651.44,251.27 L 649.95 249.00 L 554.23 249.01 C450.76,249.01 449.17,249.08 430.72,254.45 C400.78,263.17 381.07,280.93 371.05,308.25 C368.80,314.36 366.79,324.08 364.58,339.50 C363.71,345.55 362.13,356.58 361.07,364.00 C360.00,371.42 358.88,380.65 358.56,384.50 L 358.15 389.55 C357.80,390.07 357.49,390.34 357.25,390.25 C357.15,390.22 357.06,390.20 356.97,390.19 C356.92,390.06 356.87,390.00 356.82,390.00 C356.50,390.00 356.22,390.23 356.09,390.57 C356.03,390.68 356.00,390.81 356.00,390.95 C356.00,391.57 355.12,398.02 354.04,405.28 C352.96,412.55 351.15,425.25 350.01,433.50 C348.87,441.75 347.71,449.22 347.45,450.10 C347.18,450.97 346.55,455.70 346.05,460.60 C345.20,468.85 344.43,474.58 340.52,501.50 L 340.33 502.76 C338.13,517.95 337.77,520.42 338.67,522.28 C338.87,522.69 339.13,523.07 339.44,523.56 C340.36,524.96 342.10,526.50 343.31,526.99 C346.12,528.12 504.35,528.17 534.00,527.04 C548.45,526.49 558.91,525.61 563.25,524.57 C571.01,522.71 583.58,517.39 591.24,512.72 C601.34,506.56 615.70,491.05 617.82,484.00 C618.40,482.08 619.98,477.58 621.33,474.00 C623.86,467.30 626.34,455.25 627.47,444.16 C627.98,439.20 627.77,437.29 626.50,435.36 L 624.88 432.89 L 549.69 433.25 C493.01,433.53 473.52,433.93 470.50,434.87 C456.87,439.15 451.98,443.86 443.85,460.57 C437.65,473.30 435.71,475.63 428.11,479.48 C425.47,480.82 424.20,480.96 422.36,480.12 C421.06,479.53 419.99,478.47 419.99,477.77 C419.98,477.07 421.15,470.20 422.59,462.50 C426.32,442.50 429.51,433.08 434.67,426.80 C439.74,420.61 446.37,415.19 449.92,414.33 C451.34,413.98 455.32,412.42 458.78,410.85 C462.23,409.28 465.70,408.00 466.49,408.00 C467.28,408.00 471.65,407.13 476.21,406.07 C480.77,405.01 487.65,404.02 491.50,403.87 C495.35,403.72 500.75,402.83 503.50,401.90 C503.77,401.81 504.08,401.72 504.44,401.62 C505.77,401.24 507.76,400.79 510.10,400.31 L 510.11 400.31 C513.29,399.68 517.04,399.04 520.50,398.57 C527.10,397.67 534.53,396.53 537.00,396.04 C537.78,395.88 538.94,395.66 540.33,395.40 ZM 611.50 703.53 C613.80,704.63 617.77,704.88 628.50,704.59 C640.09,704.28 644.04,703.75 651.45,701.53 C663.83,697.80 667.48,695.72 674.45,688.40 C684.49,677.87 687.07,673.64 690.96,661.40 C693.01,654.93 693.10,653.80 691.95,648.65 C691.04,644.58 690.98,642.35 691.73,640.68 C692.42,639.18 692.45,637.77 691.83,636.65 C690.95,635.09 688.34,634.95 662.47,635.05 C646.85,635.11 633.59,634.87 633.01,634.51 C632.44,634.15 630.36,634.85 628.40,636.06 C625.06,638.13 624.88,638.51 625.37,642.38 C625.66,644.65 625.92,648.98 625.95,652.01 C626.00,657.23 626.17,657.59 629.25,659.00 C631.73,660.14 635.45,660.41 645.04,660.14 C655.94,659.83 657.76,660.01 659.00,661.50 C660.46,663.26 660.16,663.64 650.00,672.43 C647.20,674.85 644.14,676.00 640.50,676.00 C638.50,676.00 635.91,676.51 634.73,677.14 C631.56,678.84 621.37,678.23 617.14,676.09 C615.14,675.07 611.99,673.92 610.14,673.52 C607.91,673.04 606.24,671.81 605.14,669.87 C604.24,668.26 602.48,666.68 601.23,666.36 C598.53,665.66 595.94,662.31 596.66,660.45 C596.94,659.72 596.23,658.54 595.08,657.82 C593.78,657.01 593.00,655.47 593.00,653.73 C593.00,652.19 592.33,649.32 591.50,647.35 C589.41,642.34 589.62,639.09 592.40,633.59 C593.73,630.98 595.10,627.28 595.46,625.36 C596.31,620.84 602.21,614.33 606.27,613.44 C608.00,613.06 611.21,611.57 613.39,610.12 C616.89,607.80 618.34,607.50 625.92,607.50 C637.80,607.50 643.86,608.52 646.44,610.94 C647.64,612.07 649.00,613.00 649.45,613.00 C649.91,613.00 652.47,614.35 655.15,616.00 C659.87,618.90 663.00,619.80 663.00,618.25 C663.00,617.84 664.11,617.44 665.46,617.36 C666.82,617.28 668.65,616.49 669.53,615.61 C670.42,614.72 671.96,614.00 672.96,614.00 C673.95,614.00 676.39,612.21 678.36,610.02 C681.45,606.61 681.87,605.58 681.31,602.80 C680.65,599.52 675.24,593.00 673.18,593.00 C672.57,593.00 670.56,591.68 668.72,590.06 C662.56,584.65 649.61,581.04 636.32,581.02 C631.26,581.01 626.09,580.61 624.82,580.13 C623.34,579.58 620.68,579.74 617.50,580.59 C614.75,581.32 611.54,581.93 610.38,581.96 C609.21,581.98 606.06,582.94 603.38,584.08 C592.13,588.89 589.44,590.09 588.39,590.77 C583.95,593.68 581.08,595.90 578.42,598.49 C576.73,600.15 574.14,602.31 572.67,603.30 C571.20,604.28 570.00,605.93 570.00,606.95 C570.00,607.96 568.74,611.21 567.19,614.15 C562.26,623.55 561.48,628.01 561.71,645.50 C561.94,663.06 563.27,669.86 566.78,671.46 C567.94,671.99 569.16,673.49 569.48,674.79 C570.79,680.01 591.39,697.78 596.34,697.97 C596.81,697.99 598.33,698.90 599.73,700.00 C601.13,701.10 603.67,702.02 605.38,702.05 C607.10,702.07 609.85,702.74 611.50,703.53 ZM 741.50 703.46 C750.88,705.84 768.04,703.40 773.88,698.85 C775.20,697.83 776.81,697.00 777.48,697.00 C780.72,697.00 787.61,692.18 789.33,688.70 C790.34,686.67 791.58,685.00 792.10,685.00 C793.23,685.00 797.99,674.84 798.04,672.31 C798.05,671.32 798.71,669.38 799.50,668.00 C801.43,664.63 801.49,649.46 799.59,645.82 C798.82,644.34 797.87,641.64 797.48,639.82 C797.08,637.99 796.15,635.83 795.40,635.00 C790.67,629.79 789.00,627.56 789.00,626.45 C789.00,625.76 787.42,624.27 785.50,623.13 C783.58,622.00 782.00,620.60 782.00,620.03 C782.00,619.47 780.76,619.00 779.25,618.99 C777.74,618.99 775.15,618.09 773.50,617.00 C771.85,615.91 769.38,615.01 768.00,615.00 C766.62,614.99 763.25,614.28 760.50,613.42 C753.94,611.37 737.76,612.30 731.67,615.06 C729.38,616.10 726.67,616.97 725.65,616.98 C724.64,616.99 721.71,618.85 719.15,621.12 C716.59,623.39 713.50,625.70 712.27,626.27 C711.04,626.84 709.75,628.25 709.41,629.40 C709.06,630.56 707.68,632.67 706.33,634.11 C703.02,637.66 700.76,645.79 700.25,656.00 C699.39,673.51 707.40,689.41 720.50,696.20 C722.70,697.34 725.57,699.11 726.88,700.14 C728.20,701.16 730.90,702.04 732.88,702.10 C734.87,702.15 738.75,702.76 741.50,703.46 ZM 434.45 700.65 C436.99,701.48 442.04,701.87 448.00,701.68 C458.41,701.36 465.18,699.12 470.17,694.34 C473.51,691.14 475.00,691.99 475.00,697.09 L 475.00 701.07 L 486.25 700.78 L 497.50 700.50 L 497.50 617.50 L 474.50 616.95 L 474.28 620.11 C474.16,621.85 473.83,623.50 473.55,623.79 C473.27,624.07 471.25,623.06 469.07,621.55 C457.47,613.51 438.59,613.11 423.83,620.59 C408.86,628.17 399.99,646.58 402.87,664.05 C405.83,681.97 417.04,694.96 434.45,700.65 ZM 224.24 643.25 L 223.98 701.00 L 262.29 701.00 C290.75,701.00 300.91,700.69 301.80,699.80 C303.50,698.10 303.46,680.01 301.75,679.97 C301.06,679.95 288.69,679.97 274.25,680.00 L 248.00 680.06 L 248.00 652.04 L 272.25 651.77 L 296.50 651.50 L 296.78 641.87 L 297.07 632.23 L 294.47 631.58 C293.04,631.22 282.12,630.98 270.19,631.04 L 248.50 631.15 L 248.22 619.09 L 247.94 607.03 L 274.72 606.77 L 301.50 606.50 L 301.78 596.25 L 302.07 586.00 L 279.28 585.78 C266.75,585.66 249.30,585.54 240.50,585.53 L 224.50 585.50 ZM 321.00 643.53 L 321.00 701.07 L 332.25 700.78 L 343.50 700.50 L 344.00 682.20 L 344.50 663.90 L 354.97 675.56 C360.73,681.97 367.85,690.32 370.79,694.11 L 376.14 701.00 L 389.01 701.00 C396.63,701.00 402.14,700.59 402.51,699.99 C402.85,699.43 396.67,691.44 388.77,682.24 C370.19,660.59 366.74,656.26 367.16,655.17 C367.35,654.67 375.28,646.00 384.78,635.89 L 402.07 617.50 L 374.58 616.94 L 366.04 626.22 C361.35,631.32 354.47,638.60 350.75,642.38 L 344.00 649.26 L 344.00 618.19 C344.00,601.10 343.66,586.91 343.25,586.66 C342.57,586.23 325.18,585.59 322.25,585.88 C321.27,585.97 321.00,598.24 321.00,643.53 ZM 529.53 703.24 C530.45,703.27 531.28,703.31 532.03,703.33 C537.29,703.53 538.71,703.59 539.97,703.15 C540.61,702.93 541.21,702.58 542.26,702.05 C546.90,699.73 547.20,696.69 546.56,658.50 C545.43,590.47 545.15,586.44 541.50,583.77 C540.25,582.85 530.00,582.91 524.00,583.87 C520.96,584.35 519.60,585.03 519.80,585.95 C519.97,586.70 519.64,587.61 519.07,587.96 C518.38,588.38 517.89,607.31 517.62,644.24 C517.25,695.35 517.35,700.01 518.89,701.40 C520.05,702.45 523.29,703.01 529.53,703.24 ZM 445.16 344.86 C445.17,344.72 445.19,344.59 445.21,344.47 C445.50,342.90 446.73,341.68 450.18,338.96 C450.19,338.95 450.20,338.94 450.21,338.93 C453.12,336.64 456.60,334.34 457.97,333.82 C459.34,333.30 461.83,332.27 463.48,331.54 C465.14,330.80 471.90,328.77 478.50,327.02 C485.10,325.28 495.23,322.57 501.00,321.01 C506.77,319.45 513.30,317.88 515.50,317.52 C517.70,317.16 521.35,316.24 523.61,315.49 C525.87,314.74 532.17,313.35 537.61,312.42 C547.62,310.70 552.01,308.96 551.98,306.73 C551.97,305.87 551.84,305.77 551.37,306.45 C551.55,305.58 550.29,302.57 548.50,299.57 C550.81,303.41 552.00,304.69 552.00,303.33 C552.00,302.20 551.10,300.13 550.00,298.73 C546.60,294.41 547.30,293.66 554.02,294.42 C557.33,294.80 561.89,295.76 564.15,296.55 C566.40,297.35 569.43,298.03 570.88,298.06 C572.32,298.09 579.34,299.78 586.49,301.82 C596.56,304.69 599.56,305.93 599.83,307.36 C600.25,309.52 595.78,314.53 591.50,316.70 C589.85,317.53 586.70,319.89 584.50,321.92 C581.14,325.04 566.26,336.06 562.34,338.33 C559.73,339.85 558.00,337.85 558.00,333.33 C558.00,330.87 557.50,327.94 556.90,326.81 C555.91,324.97 555.20,324.82 550.15,325.41 C543.16,326.23 537.00,328.02 537.00,329.23 C537.00,329.42 537.15,329.55 537.41,329.61 C536.50,329.79 535.69,329.95 535.00,330.09 C531.97,330.69 525.00,332.30 519.50,333.68 C514.00,335.05 507.92,336.55 506.00,337.01 C504.42,337.39 499.40,338.81 493.41,340.54 C495.97,339.69 497.19,339.19 496.87,339.09 C496.86,339.07 496.83,339.06 496.76,339.06 C495.05,339.00 466.62,346.14 456.79,349.05 C456.04,349.27 455.32,349.47 454.66,349.67 C447.80,351.67 445.66,350.89 445.19,346.22 C445.14,345.71 445.12,345.27 445.16,344.86 ZM 461.86 679.57 C458.25,681.40 455.51,681.99 450.78,681.96 C436.22,681.87 426.73,672.61 426.81,658.57 C426.90,643.72 435.33,635.57 450.50,635.65 C465.17,635.73 475.00,644.97 475.00,658.68 C475.00,667.07 469.61,675.65 461.86,679.57 ZM 762.31 674.75 C758.06,678.91 757.82,679.00 751.14,679.00 C745.58,679.00 743.97,678.63 742.50,677.00 C741.50,675.90 739.96,675.00 739.07,675.00 C736.34,675.00 733.00,672.02 733.00,669.58 C733.00,668.31 732.11,666.14 731.02,664.75 C729.49,662.81 729.06,660.80 729.13,655.90 C729.22,649.80 729.37,649.42 733.36,645.74 C739.05,640.49 745.03,638.00 751.88,638.02 C757.85,638.05 760.78,639.57 762.92,643.75 C763.55,644.99 764.66,646.00 765.38,646.00 C767.98,646.00 769.78,649.62 770.46,656.25 C771.08,662.21 770.90,663.44 768.91,666.75 C767.67,668.81 764.70,672.41 762.31,674.75 ZM 255.83 0.25 C214.94,0.29 195.59,0.33 195.59,0.36 C195.59,0.45 311.57,0.50 511.50,0.50 C711.62,0.50 827.78,0.45 827.78,0.36 C827.78,0.33 808.52,0.29 767.83,0.25 C627.21,0.11 396.81,0.11 255.83,0.25 ZM 360.47 383.50 C361.84,379.10 362.96,373.70 362.97,371.50 C362.95,375.32 361.10,382.66 359.40,386.94 ZM 540.86 328.93 C543.79,328.12 547.20,327.47 550.03,327.14 C549.27,327.26 548.43,327.42 547.50,327.60 C545.55,327.99 543.15,328.47 540.86,328.93 ZM 556.96 332.78 C556.97,332.89 556.97,333.01 556.98,333.12 C556.90,334.21 556.66,335.00 556.22,335.00 C556.08,335.00 555.91,334.87 555.71,334.64 C556.36,335.26 556.83,334.64 556.96,332.78 ZM 554.68 326.93 C555.20,326.98 555.57,327.07 555.75,327.22 C555.86,327.32 555.97,327.46 556.07,327.64 C555.73,327.29 555.28,327.06 554.68,326.93 ZM 550.89 306.98 C550.62,307.15 550.18,307.34 549.60,307.57 C550.37,307.26 550.91,306.98 551.18,306.75 C551.12,306.82 551.03,306.90 550.89,306.98 ZM 537.22 311.03 L 537.21 311.03 C536.29,311.25 535.25,311.49 534.13,311.76 C536.08,311.29 537.80,310.88 539.16,310.57 C538.54,310.72 537.89,310.87 537.22,311.03 ZM 467.00 348.46 L 462.50 349.94 L 467.00 348.45 C467.33,348.35 467.75,348.21 468.25,348.05 C467.77,348.20 467.35,348.34 467.00,348.46 ZM 527.00 395.07 C527.00,395.35 527.05,395.57 527.26,395.71 C527.03,395.57 527.00,395.36 527.00,395.07 Z" fill="rgb(42,49,67)"/>
<path d="M 611.50 703.53 C609.85,702.74 607.10,702.07 605.38,702.05 C603.67,702.02 601.13,701.10 599.73,700.00 C598.33,698.90 596.81,697.99 596.34,697.97 C591.39,697.78 570.79,680.01 569.48,674.79 C569.16,673.49 567.94,671.99 566.78,671.46 C563.27,669.86 561.94,663.06 561.71,645.50 C561.48,628.01 562.26,623.55 567.19,614.15 C568.74,611.21 570.00,607.96 570.00,606.95 C570.00,605.93 571.20,604.28 572.67,603.30 C574.14,602.31 576.73,600.15 578.42,598.49 C581.08,595.90 583.95,593.68 588.39,590.77 C589.44,590.09 592.13,588.89 603.38,584.08 C606.06,582.94 609.21,581.98 610.38,581.96 C611.54,581.93 614.75,581.32 617.50,580.59 C620.68,579.74 623.34,579.58 624.82,580.13 C626.09,580.61 631.26,581.01 636.32,581.02 C649.61,581.04 662.56,584.65 668.72,590.06 C670.56,591.68 672.57,593.00 673.18,593.00 C675.24,593.00 680.65,599.52 681.31,602.80 C681.87,605.58 681.45,606.61 678.36,610.02 C676.39,612.21 673.95,614.00 672.96,614.00 C671.96,614.00 670.42,614.72 669.53,615.61 C668.65,616.49 666.82,617.28 665.46,617.36 C664.11,617.44 663.00,617.84 663.00,618.25 C663.00,619.80 659.87,618.90 655.15,616.00 C652.47,614.35 649.91,613.00 649.45,613.00 C649.00,613.00 647.64,612.07 646.44,610.94 C643.86,608.52 637.80,607.50 625.92,607.50 C618.34,607.50 616.89,607.80 613.39,610.12 C611.21,611.57 608.00,613.06 606.27,613.44 C602.21,614.33 596.31,620.84 595.46,625.36 C595.10,627.28 593.73,630.98 592.40,633.59 C589.62,639.09 589.41,642.34 591.50,647.35 C592.33,649.32 593.00,652.19 593.00,653.73 C593.00,655.47 593.78,657.01 595.08,657.82 C596.23,658.54 596.94,659.72 596.66,660.45 C595.94,662.31 598.53,665.66 601.23,666.36 C602.48,666.68 604.24,668.26 605.14,669.87 C606.24,671.81 607.91,673.04 610.14,673.52 C611.99,673.92 615.14,675.07 617.14,676.09 C621.37,678.23 631.56,678.84 634.73,677.14 C635.91,676.51 638.50,676.00 640.50,676.00 C644.14,676.00 647.20,674.85 650.00,672.43 C660.16,663.64 660.46,663.26 659.00,661.50 C657.76,660.01 655.94,659.83 645.04,660.14 C635.45,660.41 631.73,660.14 629.25,659.00 C626.17,657.59 626.00,657.23 625.95,652.01 C625.92,648.98 625.66,644.65 625.37,642.38 C624.88,638.51 625.06,638.13 628.40,636.06 C630.36,634.85 632.44,634.15 633.01,634.51 C633.59,634.87 646.85,635.11 662.47,635.05 C688.34,634.95 690.95,635.09 691.83,636.65 C692.45,637.77 692.42,639.18 691.73,640.68 C690.98,642.35 691.04,644.58 691.95,648.65 C693.10,653.80 693.01,654.93 690.96,661.40 C687.07,673.64 684.49,677.87 674.45,688.40 C667.48,695.72 663.83,697.80 651.45,701.53 C644.04,703.75 640.09,704.28 628.50,704.59 C617.77,704.88 613.80,704.63 611.50,703.53 ZM 741.50 703.46 C738.75,702.76 734.87,702.15 732.88,702.10 C730.90,702.04 728.20,701.16 726.88,700.14 C725.57,699.11 722.70,697.34 720.50,696.20 C707.40,689.41 699.39,673.51 700.25,656.00 C700.76,645.79 703.02,637.66 706.33,634.11 C707.68,632.67 709.06,630.56 709.41,629.40 C709.75,628.25 711.04,626.84 712.27,626.27 C713.50,625.70 716.59,623.39 719.15,621.12 C721.71,618.85 724.64,616.99 725.65,616.98 C726.67,616.97 729.38,616.10 731.67,615.06 C737.76,612.30 753.94,611.37 760.50,613.42 C763.25,614.28 766.62,614.99 768.00,615.00 C769.38,615.01 771.85,615.91 773.50,617.00 C775.15,618.09 777.74,618.99 779.25,618.99 C780.76,619.00 782.00,619.47 782.00,620.03 C782.00,620.60 783.58,622.00 785.50,623.13 C787.42,624.27 789.00,625.76 789.00,626.45 C789.00,627.56 790.67,629.79 795.40,635.00 C796.15,635.83 797.08,637.99 797.48,639.82 C797.87,641.64 798.82,644.34 799.59,645.82 C801.49,649.46 801.43,664.63 799.50,668.00 C798.71,669.38 798.05,671.32 798.04,672.31 C797.99,674.84 793.23,685.00 792.10,685.00 C791.58,685.00 790.34,686.67 789.33,688.70 C787.61,692.18 780.72,697.00 777.48,697.00 C776.81,697.00 775.20,697.83 773.88,698.85 C768.04,703.40 750.88,705.84 741.50,703.46 ZM 612.62 700.44 C624.43,702.79 637.53,702.39 648.21,699.36 C658.77,696.36 663.75,694.07 669.41,689.61 C683.42,678.56 689.00,666.83 689.00,648.39 L 689.00 638.00 L 629.00 638.00 L 629.00 656.79 L 644.92 657.15 C653.67,657.34 661.16,657.82 661.55,658.22 C664.61,661.28 659.36,670.38 651.86,674.99 C631.76,687.36 601.76,679.77 592.17,659.88 C582.90,640.65 590.54,618.16 609.61,608.53 C614.81,605.90 616.75,605.51 626.17,605.17 C634.37,604.87 638.07,605.18 642.17,606.51 C648.29,608.50 656.46,612.90 659.77,615.99 L 662.03 618.11 L 666.52 614.55 C668.98,612.60 673.01,609.41 675.46,607.47 C678.37,605.16 679.71,603.42 679.34,602.43 C678.60,600.52 668.06,593.02 661.43,589.69 C652.12,585.02 644.73,583.60 629.50,583.57 C613.48,583.54 606.97,584.90 595.18,590.74 C581.00,597.75 570.92,609.61 565.98,625.05 C563.47,632.93 563.27,649.38 565.58,658.36 C569.58,673.87 580.48,686.72 596.12,694.37 C601.42,696.97 608.82,699.69 612.62,700.44 ZM 732.77 698.97 C742.69,703.00 765.63,701.04 776.29,695.24 C782.46,691.89 790.60,683.73 793.49,678.00 C799.08,666.93 799.55,649.82 794.54,640.00 C790.79,632.67 789.01,630.51 782.44,625.41 C772.42,617.63 759.75,614.73 742.18,616.19 C723.55,617.73 708.19,630.52 704.01,647.96 C702.02,656.25 703.23,668.34 706.84,676.31 C709.60,682.39 717.14,692.00 719.15,692.00 C719.64,692.00 721.84,693.14 724.04,694.52 C726.24,695.91 730.16,697.91 732.77,698.97 ZM 529.53 703.24 C523.29,703.01 520.05,702.45 518.89,701.40 C517.35,700.01 517.25,695.35 517.62,644.24 C517.89,607.31 518.38,588.38 519.07,587.96 C519.64,587.61 519.97,586.70 519.80,585.95 C519.60,585.03 520.96,584.35 524.00,583.87 C530.00,582.91 540.25,582.85 541.50,583.77 C545.15,586.44 545.43,590.47 546.56,658.50 C547.20,696.69 546.90,699.73 542.26,702.05 C541.21,702.58 540.61,702.93 539.97,703.15 C538.71,703.59 537.29,703.53 532.03,703.33 C531.28,703.31 530.45,703.27 529.53,703.24 ZM 522.25 699.97 C525.30,701.20 538.26,701.23 541.44,700.02 L 544.02 699.04 L 543.76 642.77 L 543.50 586.50 L 520.00 585.94 L 520.00 699.06 ZM 762.59 678.45 C752.80,684.50 738.31,682.34 731.84,673.86 C726.42,666.75 725.39,655.12 729.47,647.07 C733.88,638.37 739.80,635.52 752.20,636.15 C760.73,636.58 765.72,639.14 770.67,645.63 C773.24,649.01 773.50,650.09 773.50,657.50 C773.50,664.83 773.19,666.15 770.47,670.55 C768.61,673.57 765.59,676.60 762.59,678.45 ZM 762.31 674.75 C764.70,672.41 767.67,668.81 768.91,666.75 C770.90,663.44 771.08,662.21 770.46,656.25 C769.78,649.62 767.98,646.00 765.38,646.00 C764.66,646.00 763.55,644.99 762.92,643.75 C760.78,639.57 757.85,638.05 751.88,638.02 C745.03,638.00 739.05,640.49 733.36,645.74 C729.37,649.42 729.22,649.80 729.13,655.90 C729.06,660.80 729.49,662.81 731.02,664.75 C732.11,666.14 733.00,668.31 733.00,669.58 C733.00,672.02 736.34,675.00 739.07,675.00 C739.96,675.00 741.50,675.90 742.50,677.00 C743.97,678.63 745.58,679.00 751.14,679.00 C757.82,679.00 758.06,678.91 762.31,674.75 Z" fill="rgb(51,49,54)"/>
<path d="M 568.50 386.00 C571.70,384.90 575.16,384.00 576.19,384.00 C577.22,384.00 580.19,382.95 582.78,381.66 C585.38,380.37 589.70,378.72 592.40,377.99 C595.09,377.26 599.14,375.27 601.40,373.57 C603.65,371.87 606.65,369.74 608.05,368.85 C614.49,364.73 631.00,347.16 631.00,344.44 C631.00,344.14 632.12,342.24 633.50,340.21 C634.88,338.19 636.00,335.63 636.00,334.52 C636.01,333.41 637.12,329.80 638.48,326.50 C639.84,323.20 640.96,318.92 640.98,317.00 C640.99,315.07 642.07,308.10 643.38,301.50 C644.69,294.90 645.55,287.86 645.29,285.86 C644.99,283.58 645.45,280.85 646.52,278.61 C647.53,276.46 648.03,273.68 647.75,271.75 C647.48,269.96 647.91,266.31 648.71,263.62 C650.34,258.10 649.84,254.56 647.26,253.49 C644.17,252.20 591.05,253.23 588.81,254.62 C588.39,254.88 565.20,255.01 537.28,254.91 C468.19,254.67 467.64,254.68 458.00,255.48 C447.45,256.35 435.40,258.71 432.61,260.45 C431.45,261.17 429.00,262.03 427.17,262.37 C425.33,262.71 422.63,263.83 421.17,264.86 C419.70,265.89 417.38,267.07 416.00,267.48 C408.52,269.68 395.00,280.78 395.00,284.71 C395.00,286.47 394.44,287.00 392.55,287.00 C391.00,287.00 389.43,287.99 388.30,289.68 C387.31,291.16 384.89,293.97 382.92,295.93 C378.78,300.07 374.61,310.47 372.49,321.97 C370.38,333.45 366.24,353.73 364.52,361.00 C363.35,365.96 362.87,368.83 363.08,369.55 C363.01,370.31 362.97,370.98 362.97,371.50 C362.96,373.70 361.84,379.10 360.47,383.50 L 359.40 386.94 C358.96,388.05 358.53,388.96 358.15,389.55 L 358.56 384.50 C358.88,380.65 360.00,371.42 361.07,364.00 C362.13,356.58 363.71,345.55 364.58,339.50 C366.79,324.08 368.80,314.36 371.05,308.25 C381.07,280.93 400.78,263.17 430.72,254.45 C449.17,249.08 450.76,249.01 554.23,249.01 L 649.95 249.00 L 651.44 251.27 C652.79,253.33 652.51,256.61 648.51,285.41 C643.59,320.79 641.92,329.47 638.20,339.00 C632.96,352.45 622.00,365.70 608.97,374.33 C597.37,382.01 577.93,388.43 556.96,391.48 C554.93,391.78 552.56,392.14 550.14,392.52 C545.12,393.27 538.14,394.37 528.90,395.86 C527.98,395.92 527.50,395.86 527.26,395.71 C527.05,395.57 527.00,395.35 527.00,395.07 C527.00,394.14 533.62,392.58 542.00,391.54 C543.29,391.38 545.05,391.06 546.82,390.67 C547.21,390.66 547.71,390.57 548.25,390.39 C548.49,390.32 548.80,390.22 549.17,390.11 C549.98,389.90 550.74,389.70 551.41,389.49 C551.63,389.43 551.86,389.36 552.09,389.29 C552.38,389.21 552.69,389.13 552.99,389.05 C555.40,388.45 558.08,388.00 559.50,388.00 C560.00,388.00 560.68,387.93 561.48,387.80 C561.70,388.15 564.00,387.55 568.50,386.00 ZM 545.00 293.38 C545.00,293.59 546.58,296.37 548.50,299.57 C550.29,302.57 551.55,305.58 551.37,306.45 C551.32,306.53 551.26,306.62 551.19,306.72 C551.19,306.73 551.18,306.74 551.18,306.75 C550.91,306.98 550.37,307.26 549.60,307.57 C547.63,308.32 544.04,309.38 539.90,310.39 C539.70,310.44 539.50,310.49 539.29,310.54 L 539.16 310.57 C537.80,310.88 536.08,311.29 534.13,311.75 L 534.13 311.76 C526.99,313.44 516.37,316.06 508.04,318.18 L 508.03 318.18 C503.24,319.37 498.76,320.50 495.10,321.43 C490.47,322.57 487.14,323.34 486.50,323.42 C485.40,323.55 483.24,324.18 481.69,324.82 C481.45,324.92 481.18,325.03 480.87,325.13 C478.90,325.61 476.73,326.14 474.58,326.64 C470.79,327.20 470.63,327.11 472.09,325.57 C472.98,324.63 476.33,323.52 479.71,323.04 C483.02,322.57 487.12,321.47 488.82,320.59 C490.51,319.72 493.12,319.00 494.61,319.00 C496.54,319.00 499.93,318.26 505.84,316.50 L 505.84 316.50 C508.62,315.68 511.91,314.65 515.76,313.38 C519.75,312.07 524.70,311.00 526.76,311.00 C528.82,311.00 534.10,309.73 538.50,308.19 C545.61,305.70 546.54,305.09 546.82,302.69 C547.00,301.10 546.32,298.95 545.16,297.47 C543.71,295.63 543.38,294.24 543.91,292.23 C544.57,289.75 545.11,289.48 549.73,289.26 C552.66,289.13 556.00,289.64 557.59,290.46 C559.11,291.25 560.72,291.67 561.16,291.40 C562.83,290.37 574.82,293.25 582.61,296.56 C587.07,298.45 592.02,300.00 593.61,300.00 C596.69,300.01 603.00,303.32 603.00,304.93 C603.00,305.47 601.54,305.29 599.71,304.52 C595.11,302.60 586.98,300.31 578.37,298.26 C574.63,297.34 570.64,296.42 566.50,295.55 C561.60,294.51 556.57,293.72 552.60,293.28 C548.12,292.79 545.00,292.77 545.00,293.38 ZM 553.30 330.04 C552.58,329.19 551.60,329.00 549.62,329.00 C548.06,329.00 544.52,329.72 540.98,330.72 C540.15,330.95 539.30,331.21 538.43,331.49 C534.07,332.92 528.99,334.33 527.15,334.62 C525.30,334.92 522.38,336.02 520.65,337.07 C519.46,337.80 517.68,338.44 516.06,338.78 L 516.06 338.78 C515.39,338.92 514.76,339.00 514.22,339.00 C513.58,339.00 512.77,339.09 511.90,339.24 C510.32,339.49 508.62,339.95 507.50,340.46 L 507.43 340.50 C507.36,340.53 507.29,340.56 507.22,340.58 C505.17,341.46 501.02,342.56 498.00,343.03 C492.86,343.83 483.85,345.80 474.50,348.15 C472.30,348.71 468.70,349.34 466.50,349.55 L 462.50 349.94 L 467.00 348.46 C467.35,348.34 467.77,348.20 468.25,348.05 L 468.25 348.05 C469.33,347.71 470.79,347.26 472.49,346.75 C482.23,344.00 489.44,341.86 493.41,340.54 C499.40,338.81 504.42,337.39 506.00,337.01 C507.92,336.55 514.00,335.05 519.50,333.68 C525.00,332.30 531.97,330.69 535.00,330.09 C535.69,329.95 536.50,329.79 537.41,329.61 C537.81,329.72 538.49,329.65 539.25,329.41 C539.77,329.24 540.31,329.08 540.87,328.93 C543.15,328.47 545.55,327.99 547.50,327.60 C548.43,327.42 549.27,327.26 550.03,327.14 C551.96,326.91 553.63,326.82 554.68,326.93 C555.28,327.06 555.73,327.29 556.07,327.64 C556.54,328.52 556.86,330.37 556.96,332.78 C556.83,334.64 556.36,335.26 555.71,334.64 C555.27,334.13 554.73,333.13 554.31,332.00 C554.11,331.48 553.93,331.05 553.73,330.69 C553.73,330.67 553.72,330.65 553.72,330.63 C553.64,330.40 553.50,330.21 553.30,330.04 ZM 625.93 435.75 C626.56,436.97 626.52,439.76 625.83,445.47 C624.54,452.67 623.00,453.65 622.98,446.95 C622.98,444.41 622.67,441.79 622.26,440.54 L 622.26 440.54 C622.18,440.31 622.10,440.13 622.02,440.00 C621.36,438.95 618.57,438.32 612.79,437.92 C605.38,437.39 592.40,437.12 582.73,437.13 L 582.73 437.13 C572.73,436.99 559.40,436.62 551.50,436.25 C537.75,435.61 541.68,435.43 579.50,434.99 C585.34,434.93 590.96,434.87 596.14,434.83 L 596.14 434.83 C610.55,434.76 621.98,434.78 624.64,434.93 C624.87,434.95 625.07,434.99 625.26,435.07 C625.52,435.24 625.75,435.46 625.93,435.75 ZM 568.50 336.18 C570.69,334.66 573.22,332.84 575.90,330.87 C582.61,326.09 590.46,320.13 598.00,314.00 C604.86,308.42 605.59,308.29 601.89,313.30 C600.03,315.82 597.25,318.42 595.71,319.08 C594.18,319.74 592.48,321.11 591.93,322.13 C591.38,323.16 589.26,324.85 587.22,325.90 C585.17,326.95 582.49,328.97 581.26,330.40 C580.02,331.83 578.42,333.00 577.70,333.00 C577.61,333.00 577.50,333.03 577.37,333.07 C577.14,333.16 576.85,333.32 576.51,333.53 L 576.50 333.54 C575.52,334.18 574.18,335.32 572.95,336.62 C571.33,338.33 568.72,340.22 566.23,341.66 C563.63,342.99 561.02,343.67 558.88,343.48 C558.57,343.34 558.27,343.18 558.00,343.00 C556.69,342.16 556.71,342.03 558.12,342.02 C558.47,342.01 559.19,341.72 560.19,341.19 C561.91,340.64 564.52,338.95 568.50,336.18 ZM 615.35 485.68 C614.03,488.00 612.17,490.64 610.03,493.31 C608.70,494.41 608.01,494.15 608.69,492.25 C609.03,491.29 610.55,488.63 612.06,486.35 C612.33,485.93 612.61,485.49 612.87,485.03 C613.67,483.77 614.30,482.53 614.58,481.67 C615.00,480.71 615.32,479.84 615.46,479.20 C616.07,476.40 619.51,472.17 620.43,473.09 C620.49,473.16 620.50,473.32 620.46,473.57 C619.63,476.14 618.68,478.59 617.55,481.14 C616.85,482.67 616.09,484.24 615.35,485.68 ZM 441.00 348.94 C441.00,346.09 442.69,344.89 442.99,347.13 C442.99,348.24 443.31,349.29 443.95,350.27 C444.28,350.85 444.67,351.43 445.09,351.93 C447.00,354.23 447.32,354.29 450.81,353.02 C452.84,352.29 455.98,351.35 457.79,350.94 C460.50,350.32 460.89,350.43 459.96,351.54 C457.32,354.73 446.78,355.94 443.24,353.46 C441.78,352.43 441.00,350.86 441.00,348.94 ZM 622.58 465.70 C622.39,466.55 622.20,467.37 622.00,468.18 C621.89,468.49 621.78,468.80 621.65,469.09 L 620.16 472.50 L 620.18 469.00 C620.21,464.26 621.29,460.70 622.80,460.40 C623.49,460.26 623.59,460.38 623.03,460.66 C622.46,460.94 622.26,462.18 622.57,463.42 C622.71,463.98 622.70,464.80 622.58,465.70 ZM 441.68 343.25 C442.61,340.63 445.13,338.00 446.70,338.00 C447.61,338.00 447.14,339.19 445.29,341.50 C442.27,345.28 440.69,346.05 441.68,343.25 Z" fill="rgb(59,214,185)"/>
<path d="M 638.40 657.00 L 665.04 657.00 L 664.35 659.75 C663.97,661.26 662.05,664.67 660.08,667.31 C659.02,668.73 657.86,670.04 656.60,671.23 C661.33,666.52 663.91,660.58 661.55,658.22 C661.16,657.82 653.67,657.34 644.92,657.15 ZM 611.92 677.51 C603.42,674.07 596.15,668.12 592.17,659.88 C596.07,667.96 603.32,674.00 611.92,677.51 Z" fill="rgb(83,59,47)"/>
<path d="M 775.55 695.63 C776.48,694.94 777.00,694.21 777.00,693.44 C777.00,692.61 778.50,691.05 780.33,689.97 C793.86,681.99 799.48,652.36 789.50,641.60 C788.19,640.18 786.84,639.44 786.52,639.96 C786.20,640.49 784.71,640.86 783.22,640.79 C781.72,640.72 779.71,641.01 778.75,641.44 C777.40,642.04 777.00,641.74 777.00,640.13 C777.00,638.74 776.17,637.83 774.54,637.42 C773.19,637.08 771.52,636.13 770.83,635.30 C769.79,634.04 770.12,633.35 772.83,631.14 C775.42,629.02 775.83,628.23 774.84,627.24 C772.96,625.36 771.48,625.74 770.01,628.49 C768.95,630.47 768.14,630.86 766.09,630.39 C759.79,628.97 758.20,628.87 757.57,629.88 C757.18,630.52 759.53,632.20 763.40,634.03 C767.67,636.04 770.12,637.85 770.56,639.30 C770.93,640.51 772.09,642.44 773.14,643.60 C777.63,648.51 778.82,652.54 778.00,660.04 C777.57,663.92 776.58,667.86 775.80,668.80 C775.02,669.73 773.85,671.76 773.19,673.30 C772.31,675.36 769.96,677.07 764.25,679.80 C757.03,683.25 755.95,683.48 748.50,683.22 C738.69,682.88 730.57,679.41 729.50,675.13 C729.14,673.68 728.25,671.83 727.52,671.00 C725.89,669.16 723.00,659.58 723.00,656.04 C723.00,654.61 723.62,652.56 724.37,651.47 C725.13,650.39 726.06,648.04 726.45,646.26 C726.84,644.48 727.62,642.74 728.18,642.39 C728.74,642.04 729.83,640.25 730.60,638.42 C731.69,635.82 732.87,634.84 735.96,634.01 C742.95,632.13 745.29,625.16 738.50,626.43 C736.25,626.86 734.90,626.58 734.02,625.52 C732.06,623.16 728.26,623.67 726.38,626.54 C725.33,628.14 723.07,629.52 720.26,630.28 C716.55,631.27 715.22,632.34 712.40,636.59 C710.53,639.40 709.00,642.53 709.00,643.54 C709.00,644.54 708.06,647.31 706.91,649.69 C704.65,654.35 704.61,661.66 706.82,667.50 C707.44,669.15 708.21,672.20 708.53,674.27 C708.85,676.39 710.39,679.52 712.05,681.40 C713.67,683.25 715.01,685.15 715.03,685.63 C715.13,688.25 722.14,693.85 729.54,697.51 C727.53,696.53 725.43,695.41 724.04,694.52 C721.84,693.14 719.64,692.00 719.15,692.00 C717.14,692.00 709.60,682.39 706.84,676.31 C703.23,668.34 702.02,656.25 704.01,647.96 C708.19,630.52 723.55,617.73 742.18,616.19 C759.75,614.73 772.42,617.63 782.44,625.41 C789.01,630.51 790.79,632.67 794.54,640.00 C799.55,649.82 799.08,666.93 793.49,678.00 C790.60,683.73 782.46,691.89 776.29,695.24 C776.05,695.37 775.80,695.50 775.55,695.63 ZM 611.92 677.51 C624.49,682.64 639.92,682.34 651.86,674.99 C653.58,673.93 655.19,672.63 656.60,671.23 C657.86,670.04 659.02,668.73 660.08,667.31 C662.05,664.67 663.97,661.26 664.35,659.75 L 664.86 657.70 C664.95,657.90 665.04,658.10 665.13,658.32 C666.18,660.86 665.98,661.84 663.41,666.67 C661.01,671.18 659.36,672.82 654.00,675.96 C646.27,680.50 642.06,681.77 631.86,682.63 C626.17,683.11 622.34,682.82 616.86,681.49 C607.18,679.16 603.42,677.17 597.45,671.25 C590.32,664.16 588.63,661.41 586.23,653.00 C584.43,646.72 584.22,644.36 584.92,638.50 C586.07,628.77 587.75,623.19 590.67,619.36 C593.19,616.06 593.10,614.00 590.44,614.00 C589.65,614.00 589.00,613.60 589.00,613.12 C589.00,611.65 578.75,612.12 576.34,613.70 C573.25,615.72 570.00,621.53 570.00,625.02 C570.00,626.62 569.06,630.31 567.91,633.21 C566.22,637.47 565.93,639.76 566.42,645.00 C566.75,648.58 567.17,653.41 567.36,655.74 C567.56,658.30 568.95,662.01 570.85,665.06 C572.58,667.85 574.00,670.98 574.00,672.01 C574.00,673.04 576.36,676.50 579.25,679.70 C582.14,682.90 584.99,686.41 585.59,687.51 C585.80,687.89 586.26,688.36 586.92,688.89 C576.21,681.21 568.74,670.61 565.58,658.36 C563.27,649.38 563.47,632.93 565.98,625.05 C570.92,609.61 581.00,597.75 595.18,590.74 C606.97,584.90 613.48,583.54 629.50,583.57 C644.73,583.60 652.12,585.02 661.43,589.69 C668.06,593.02 678.60,600.52 679.34,602.43 C679.71,603.42 678.37,605.16 675.46,607.47 C673.01,609.41 668.98,612.60 666.52,614.55 L 662.03 618.11 L 659.77 615.99 C656.46,612.90 648.29,608.50 642.17,606.51 C638.07,605.18 634.37,604.87 626.17,605.17 C616.75,605.51 614.81,605.90 609.61,608.53 C590.54,618.16 582.90,640.65 592.17,659.88 C592.21,659.96 592.26,660.05 592.30,660.13 C596.30,668.24 603.51,674.11 611.92,677.51 ZM 762.59 678.45 C765.59,676.60 768.61,673.57 770.47,670.55 C773.19,666.15 773.50,664.83 773.50,657.50 C773.50,650.09 773.24,649.01 770.67,645.63 C765.72,639.14 760.73,636.58 752.20,636.15 C739.80,635.52 733.88,638.37 729.47,647.07 C725.39,655.12 726.42,666.75 731.84,673.86 C738.31,682.34 752.80,684.50 762.59,678.45 ZM 522.25 699.97 L 520.00 699.06 L 520.00 585.94 L 520.01 611.22 C520.02,625.12 520.31,638.23 520.66,640.35 L 521.29 644.19 L 522.61 640.36 C524.02,636.24 526.96,633.32 527.99,634.99 C528.75,636.21 537.69,638.98 538.45,638.22 C538.75,637.92 539.00,638.22 539.00,638.89 C539.00,639.57 539.45,639.84 540.00,639.50 C540.55,639.16 541.00,639.81 541.00,640.94 C541.00,642.11 541.65,643.00 542.52,643.00 C543.19,643.00 543.56,642.07 543.74,637.86 L 543.76 642.77 L 544.02 699.04 L 541.44 700.02 C538.26,701.23 525.30,701.20 522.25,699.97 ZM 638.40 657.00 L 629.00 656.79 L 629.00 638.00 L 689.00 638.00 L 689.00 648.39 C689.00,666.83 683.42,678.56 669.41,689.61 C667.74,690.92 666.14,692.05 664.43,693.06 C668.82,690.34 672.96,686.74 672.41,685.86 C672.12,685.39 673.04,683.94 674.45,682.63 C678.95,678.46 682.26,672.68 684.01,665.94 C685.48,660.25 685.54,658.34 684.49,651.62 C683.82,647.36 682.74,643.34 682.09,642.69 C680.66,641.25 671.14,641.01 649.50,641.87 L 633.50 642.50 L 633.17 645.37 C632.99,646.95 633.10,649.27 633.42,650.54 C633.98,652.78 634.31,652.83 647.04,652.94 C659.74,653.04 662.65,653.53 664.52,657.00 ZM 523.60 696.11 C524.91,697.56 526.44,697.80 532.27,697.47 C536.16,697.24 539.71,696.69 540.15,696.25 C541.42,694.98 538.85,683.21 536.82,681.04 C535.82,679.96 535.00,678.57 535.00,677.93 C535.00,677.23 534.32,677.07 533.25,677.51 C529.39,679.09 528.00,679.20 528.00,677.90 C528.00,675.32 525.31,679.33 523.63,684.43 C521.58,690.64 521.57,693.87 523.60,696.11 ZM 660.50 612.57 C661.14,614.61 664.50,613.98 664.51,611.82 C664.52,610.92 665.38,609.24 666.42,608.09 C668.27,606.04 668.27,606.00 666.40,605.84 C665.36,605.76 663.94,605.71 663.25,605.73 C662.56,605.76 662.00,605.46 662.00,605.08 C662.00,604.70 661.40,603.57 660.68,602.57 C659.43,600.87 659.17,600.86 656.18,602.41 C652.11,604.51 652.07,606.86 656.09,607.67 C657.78,608.01 659.36,608.90 659.59,609.64 C659.81,610.39 660.22,611.71 660.50,612.57 ZM 635.25 600.34 C635.94,600.62 638.05,600.88 639.94,600.92 C643.18,601.00 643.27,600.91 641.44,599.53 C639.30,597.91 634.00,597.47 634.00,598.92 C634.00,599.42 634.56,600.06 635.25,600.34 ZM 578.67 623.59 C579.30,624.91 579.74,625.95 579.66,625.88 C579.57,625.82 578.71,625.56 577.75,625.31 C576.79,625.06 576.00,624.24 576.00,623.49 C576.00,621.05 577.50,621.11 578.67,623.59 ZM 583.00 608.61 C583.00,610.56 583.75,610.34 584.99,608.02 C585.85,606.41 585.77,606.15 584.52,606.63 C583.69,606.95 583.00,607.84 583.00,608.61 ZM 732.77 698.97 C738.45,701.28 749.38,701.43 758.95,700.26 C749.17,701.64 738.67,701.36 732.77,698.97 ZM 590.11 691.03 C594.65,693.74 601.68,696.99 607.35,698.95 C603.74,697.74 599.50,696.03 596.12,694.37 C594.03,693.35 592.02,692.23 590.11,691.03 ZM 657.64 696.30 C655.01,697.32 651.96,698.29 648.21,699.36 C651.39,698.46 654.91,697.31 657.64,696.30 Z" fill="rgb(243,175,87)"/>
<path d="M 543.50 586.50 L 543.74 637.86 C543.56,642.07 543.19,643.00 542.52,643.00 C541.65,643.00 541.00,642.11 541.00,640.94 C541.00,639.81 540.55,639.16 540.00,639.50 C539.45,639.84 539.00,639.57 539.00,638.89 C539.00,638.22 538.75,637.92 538.45,638.22 C537.69,638.98 528.75,636.21 527.99,634.99 C526.96,633.32 524.02,636.24 522.61,640.36 L 521.29 644.19 L 520.66 640.35 C520.31,638.23 520.02,625.12 520.01,611.22 L 520.00 585.94 ZM 612.62 700.44 C624.43,702.79 637.53,702.39 648.21,699.36 C637.50,702.40 624.43,702.79 612.54,700.43 C611.07,700.14 609.29,699.62 607.35,698.95 C609.40,699.64 611.24,700.17 612.62,700.44 Z" fill="rgb(253,204,129)"/>
<path d="M 434.45 700.65 C417.04,694.96 405.83,681.97 402.87,664.05 C399.99,646.58 408.86,628.17 423.83,620.59 C438.59,613.11 457.47,613.51 469.07,621.55 C471.25,623.06 473.27,624.07 473.55,623.79 C473.83,623.50 474.16,621.85 474.28,620.11 L 474.50 616.95 L 497.50 617.50 L 497.50 700.50 L 486.25 700.78 L 475.00 701.07 L 475.00 697.09 C475.00,691.99 473.51,691.14 470.17,694.34 C465.18,699.12 458.41,701.36 448.00,701.68 C442.04,701.87 436.99,701.48 434.45,700.65 ZM 224.24 643.25 L 224.50 585.50 L 240.50 585.53 C249.30,585.54 266.75,585.66 279.28,585.78 L 302.07 586.00 L 301.78 596.25 L 301.50 606.50 L 274.72 606.77 L 247.94 607.03 L 248.22 619.09 L 248.50 631.15 L 270.19 631.04 C282.12,630.98 293.04,631.22 294.47,631.58 L 297.07 632.23 L 296.78 641.87 L 296.50 651.50 L 272.25 651.77 L 248.00 652.04 L 248.00 680.06 L 274.25 680.00 C288.69,679.97 301.06,679.95 301.75,679.97 C303.46,680.01 303.50,698.10 301.80,699.80 C300.91,700.69 290.75,701.00 262.29,701.00 L 223.98 701.00 ZM 321.00 643.53 C321.00,598.24 321.27,585.97 322.25,585.88 C325.18,585.59 342.57,586.23 343.25,586.66 C343.66,586.91 344.00,601.10 344.00,618.19 L 344.00 649.26 L 350.75 642.38 C354.47,638.60 361.35,631.32 366.04,626.22 L 374.58 616.94 L 402.07 617.50 L 384.78 635.89 C375.28,646.00 367.35,654.67 367.16,655.17 C366.74,656.26 370.19,660.59 388.77,682.24 C396.67,691.44 402.85,699.43 402.51,699.99 C402.14,700.59 396.63,701.00 389.01,701.00 L 376.14 701.00 L 370.79 694.11 C367.85,690.32 360.73,681.97 354.97,675.56 L 344.50 663.90 L 344.00 682.20 L 343.50 700.50 L 332.25 700.78 L 321.00 701.07 ZM 461.86 679.57 C469.61,675.65 475.00,667.07 475.00,658.68 C475.00,644.97 465.17,635.73 450.50,635.65 C435.33,635.57 426.90,643.72 426.81,658.57 C426.73,672.61 436.22,681.87 450.78,681.96 C455.51,681.99 458.25,681.40 461.86,679.57 ZM 255.83 0.25 C396.81,0.11 627.21,0.11 767.83,0.25 C808.52,0.29 827.78,0.33 827.78,0.36 C827.78,0.45 711.62,0.50 511.50,0.50 C311.57,0.50 195.59,0.45 195.59,0.36 C195.59,0.33 214.94,0.29 255.83,0.25 Z" fill="rgb(250,251,251)"/>
<path d="M 612.54 700.43 C604.55,698.84 587.25,690.55 585.59,687.51 C584.99,686.41 582.14,682.90 579.25,679.70 C576.36,676.50 574.00,673.04 574.00,672.01 C574.00,670.98 572.58,667.85 570.85,665.06 C568.95,662.01 567.56,658.30 567.36,655.74 C567.17,653.41 566.75,648.58 566.42,645.00 C565.93,639.76 566.22,637.47 567.91,633.21 C569.06,630.31 570.00,626.62 570.00,625.02 C570.00,621.53 573.25,615.72 576.34,613.70 C578.75,612.12 589.00,611.65 589.00,613.12 C589.00,613.60 589.65,614.00 590.44,614.00 C593.10,614.00 593.19,616.06 590.67,619.36 C587.75,623.19 586.07,628.77 584.92,638.50 C584.22,644.36 584.43,646.72 586.23,653.00 C588.63,661.41 590.32,664.16 597.45,671.25 C603.42,677.17 607.18,679.16 616.86,681.49 C622.34,682.82 626.17,683.11 631.86,682.63 C642.06,681.77 646.27,680.50 654.00,675.96 C659.36,672.82 661.01,671.18 663.41,666.67 C665.98,661.84 666.18,660.86 665.13,658.32 C663.20,653.64 661.20,653.05 647.04,652.94 C634.31,652.83 633.98,652.78 633.42,650.54 C633.10,649.27 632.99,646.95 633.17,645.37 L 633.50 642.50 L 649.50 641.87 C671.14,641.01 680.66,641.25 682.09,642.69 C682.74,643.34 683.82,647.36 684.49,651.62 C685.54,658.34 685.48,660.25 684.01,665.94 C682.26,672.68 678.95,678.46 674.45,682.63 C673.04,683.94 672.12,685.39 672.41,685.86 C673.08,686.94 666.72,692.09 661.48,694.72 C659.29,695.82 653.32,697.91 648.21,699.36 C637.50,702.40 624.43,702.79 612.54,700.43 ZM 578.67 623.59 C577.50,621.11 576.00,621.05 576.00,623.49 C576.00,624.24 576.79,625.06 577.75,625.31 C578.71,625.56 579.57,625.82 579.66,625.88 C579.74,625.95 579.30,624.91 578.67,623.59 ZM 732.77 698.97 C724.32,695.54 715.14,688.63 715.03,685.63 C715.01,685.15 713.67,683.25 712.05,681.40 C710.39,679.52 708.85,676.39 708.53,674.27 C708.21,672.20 707.44,669.15 706.82,667.50 C704.61,661.66 704.65,654.35 706.91,649.69 C708.06,647.31 709.00,644.54 709.00,643.54 C709.00,642.53 710.53,639.40 712.40,636.59 C715.22,632.34 716.55,631.27 720.26,630.28 C723.07,629.52 725.33,628.14 726.38,626.54 C728.26,623.67 732.06,623.16 734.02,625.52 C734.90,626.58 736.25,626.86 738.50,626.43 C745.29,625.16 742.95,632.13 735.96,634.01 C732.87,634.84 731.69,635.82 730.60,638.42 C729.83,640.25 728.74,642.04 728.18,642.39 C727.62,642.74 726.84,644.48 726.45,646.26 C726.06,648.04 725.13,650.39 724.37,651.47 C723.62,652.56 723.00,654.61 723.00,656.04 C723.00,659.58 725.89,669.16 727.52,671.00 C728.25,671.83 729.14,673.68 729.50,675.13 C730.57,679.41 738.69,682.88 748.50,683.22 C755.95,683.48 757.03,683.25 764.25,679.80 C769.96,677.07 772.31,675.36 773.19,673.30 C773.85,671.76 775.02,669.73 775.80,668.80 C776.58,667.86 777.57,663.92 778.00,660.04 C778.82,652.54 777.63,648.51 773.14,643.60 C772.09,642.44 770.93,640.51 770.56,639.30 C770.12,637.85 767.67,636.04 763.40,634.03 C759.53,632.20 757.18,630.52 757.57,629.88 C758.20,628.87 759.79,628.97 766.09,630.39 C768.14,630.86 768.95,630.47 770.01,628.49 C771.48,625.74 772.96,625.36 774.84,627.24 C775.83,628.23 775.42,629.02 772.83,631.14 C770.12,633.35 769.79,634.04 770.83,635.30 C771.52,636.13 773.19,637.08 774.54,637.42 C776.17,637.83 777.00,638.74 777.00,640.13 C777.00,641.74 777.40,642.04 778.75,641.44 C779.71,641.01 781.72,640.72 783.22,640.79 C784.71,640.86 786.20,640.49 786.52,639.96 C786.84,639.44 788.19,640.18 789.50,641.60 C799.48,652.36 793.86,681.99 780.33,689.97 C778.50,691.05 777.00,692.61 777.00,693.44 C777.00,699.52 744.22,703.62 732.77,698.97 ZM 523.60 696.11 C521.57,693.87 521.58,690.64 523.63,684.43 C525.31,679.33 528.00,675.32 528.00,677.90 C528.00,679.20 529.39,679.09 533.25,677.51 C534.32,677.07 535.00,677.23 535.00,677.93 C535.00,678.57 535.82,679.96 536.82,681.04 C538.85,683.21 541.42,694.98 540.15,696.25 C539.71,696.69 536.16,697.24 532.27,697.47 C526.44,697.80 524.91,697.56 523.60,696.11 ZM 660.50 612.57 C660.22,611.71 659.81,610.39 659.59,609.64 C659.36,608.90 657.78,608.01 656.09,607.67 C652.07,606.86 652.11,604.51 656.18,602.41 C659.17,600.86 659.43,600.87 660.68,602.57 C661.40,603.57 662.00,604.70 662.00,605.08 C662.00,605.46 662.56,605.76 663.25,605.73 C663.94,605.71 665.36,605.76 666.40,605.84 C668.27,606.00 668.27,606.04 666.42,608.09 C665.38,609.24 664.52,610.92 664.51,611.82 C664.50,613.98 661.14,614.61 660.50,612.57 ZM 583.00 608.61 C583.00,607.84 583.69,606.95 584.52,606.63 C585.77,606.15 585.85,606.41 584.99,608.02 C583.75,610.34 583.00,610.56 583.00,608.61 ZM 635.25 600.34 C634.56,600.06 634.00,599.42 634.00,598.92 C634.00,597.47 639.30,597.91 641.44,599.53 C643.27,600.91 643.18,601.00 639.94,600.92 C638.05,600.88 635.94,600.62 635.25,600.34 Z" fill="rgb(251,167,70)"/>
</g>
</svg>